<svg xmlns="http://www.w3.org/2000/svg" version="1.1" xmlns:xlink="http://www.w3.org/1999/xlink" xmlns:svgjs="http://svgjs.com/svgjs" width="512" height="512" x="0" y="0" viewBox="0 0 512 512" style="enable-background:new 0 0 512 512" xml:space="preserve"><g><g fill-rule="evenodd" clip-rule="evenodd"><path fill="#2d3a4d" d="m425.471 402.728-41.541 41.538c-1.592 1.592-3.057 2.679-5.029 3.749-27.473 14.799-69.07 12.159-117.135-7.43-41.79-17.045-85.227-46.033-113.354-75.663a23.407 23.407 0 0 0-1.333-1.341c-29.627-28.115-58.616-71.556-75.66-113.355-19.599-48.055-22.241-89.651-7.442-117.124 1.07-1.982 2.16-3.438 3.762-5.04l41.536-41.528c4.481-4.486 9.464-6.4 15.711-6.341 6.2.117 11.26 2.388 15.473 6.933l53.531 57.795a21.566 21.566 0 0 1-.573 30.011l-34.565 34.573c-8.33 8.324-11.954 19.326-10.205 30.971 4.107 27.406 18.008 53.27 42.499 79.064.446.485.852.883 1.318 1.331 25.795 24.483 51.65 38.381 79.057 42.488 11.655 1.739 22.646-1.883 30.981-10.206l34.56-34.575a21.595 21.595 0 0 1 30.018-.572l57.794 53.541c9.081 8.403 9.337 22.43.597 31.181zm9.303-41.877L376.98 307.32c-14.337-13.286-36.39-12.858-50.22.96l-34.565 34.565c-5.049 5.05-11.447 7.158-18.509 6.098-24.36-3.642-47.635-16.287-71.199-38.652-.279-.262-.512-.505-.786-.786-22.357-23.55-35.001-46.829-38.651-71.188-1.06-7.06 1.06-13.47 6.109-18.52l34.56-34.563a36.106 36.106 0 0 0 .963-50.22L151.14 77.23c-14.008-15.132-37.594-15.579-52.172-1l-41.536 41.536c-2.601 2.604-4.532 5.196-6.271 8.42-20.241 37.54-10.206 87.924 6.768 129.544 17.769 43.588 48.091 88.96 79.123 118.416.289.273.522.515.806.796 29.445 31.04 74.829 61.359 118.413 79.133 39.852 16.245 91.118 27.47 129.536 6.769 3.224-1.739 5.825-3.682 8.431-6.274l41.536-41.538c14.568-14.569 14.115-38.18-1-52.181z" data-original="#2d3a4d"></path><g fill="#009ac3"><path d="M309.421 224.431c19.495 0 29.16-23.633 15.463-37.314-13.789-13.772-37.333-3.918-37.333 15.46-.001 12.168 9.863 21.854 21.87 21.854zm-5.166-27.01c4.607-4.605 12.461-1.313 12.461 5.157 0 6.482-7.883 9.735-12.461 5.159a7.294 7.294 0 0 1 0-10.316zM296.798 127.382c48.42 0 87.812 39.399 87.812 87.822a7.288 7.288 0 0 0 7.285 7.284 7.281 7.281 0 0 0 7.285-7.284c0-56.454-45.926-102.392-102.382-102.392a7.289 7.289 0 0 0-7.285 7.286 7.287 7.287 0 0 0 7.285 7.284z" fill="#009ac3" data-original="#009ac3"></path><path d="M296.798 54.475c88.822 0 160.73 71.913 160.73 160.729 0 4.02 3.265 7.284 7.285 7.284s7.28-3.263 7.28-7.284c0-96.869-78.431-175.297-175.295-175.297a7.288 7.288 0 0 0-7.285 7.284 7.287 7.287 0 0 0 7.285 7.284z" fill="#009ac3" data-original="#009ac3"></path></g></g></g></svg>