<svg xmlns="http://www.w3.org/2000/svg" version="1.1" xmlns:xlink="http://www.w3.org/1999/xlink" xmlns:svgjs="http://svgjs.com/svgjs" width="512" height="512" x="0" y="0" viewBox="0 0 512 512" style="enable-background:new 0 0 512 512" xml:space="preserve"><g><g fill-rule="evenodd" clip-rule="evenodd"><path fill="#2d3a4d" d="M267.82 150.201c0 1.399-1.176 2.586-2.586 2.586H89.737c-1.399 0-2.586-1.186-2.586-2.586V97.283c0-1.399 1.186-2.586 2.586-2.586h175.498c1.409 0 2.586 1.187 2.586 2.586v52.918zm-2.586-70.069H89.737c-9.46 0-17.151 7.701-17.151 17.151v52.918c0 9.45 7.691 17.151 17.151 17.151h175.498c9.46 0 17.156-7.701 17.156-17.151V97.283c-.001-9.45-7.696-17.151-17.157-17.151zm211.686 50.287h-43.143a7.296 7.296 0 0 0-6.14 3.361l-22.21 34.788a7.21 7.21 0 0 0-1.136 3.914v57.83h-30.844v-76.624l26.144-35.944h77.328v12.675zM319.931 433.262V78.743c0-21.242-17.283-38.524-38.535-38.524H73.575c-21.247 0-38.524 17.283-38.524 38.524v354.519c0 21.247 17.277 38.525 38.524 38.525h207.822c21.252 0 38.534-17.278 38.534-38.525zM484.22 103.179h-88.339a7.282 7.282 0 0 0-5.886 3.001l-29.718 40.867a7.287 7.287 0 0 0-1.399 4.279v86.271a7.29 7.29 0 0 0 7.285 7.285h15.422v127.021h-47.082V78.743c0-29.272-23.822-53.095-53.105-53.095H73.575c-29.277 0-53.095 23.822-53.095 53.095v354.519c0 29.278 23.818 53.09 53.095 53.09h207.822c29.283 0 53.105-23.812 53.105-53.09v-46.793h54.367c4.02 0 7.28-3.265 7.28-7.285V244.882h15.427c4.02 0 7.28-3.265 7.28-7.285v-62.991l18.91-29.617h46.453c4.005 0 7.301-3.265 7.301-7.285V110.46c0-4.021-3.295-7.281-7.3-7.281zM177.493 417.8c-48.776 0-88.446-39.681-88.446-88.446 0-48.77 39.671-88.446 88.446-88.446 48.76 0 88.441 39.676 88.441 88.446 0 48.765-39.68 88.446-88.441 88.446zm0-191.458c56.791 0 103.011 46.21 103.011 103.011 0 56.796-46.22 103.016-103.011 103.016-56.806 0-103.016-46.22-103.016-103.016 0-56.8 46.21-103.011 103.016-103.011z" data-original="#2d3a4d"></path><path fill="#009ac3" d="m183.541 252.096-50.58 81.191c-3.007 4.84.478 11.138 6.18 11.138h18.819v58.322c0 7.312 9.628 10.035 13.47 3.853l50.58-81.191c3.022-4.845-.465-11.128-6.18-11.128h-18.819v-58.327c.001-7.294-9.623-10.032-13.47-3.858zm-1.095 29.324v40.147a7.28 7.28 0 0 0 7.28 7.28h12.988l-30.185 48.436v-40.142c0-4.02-3.255-7.28-7.285-7.28h-12.983z" data-original="#009ac3"></path></g></g></svg>