<svg xmlns="http://www.w3.org/2000/svg" version="1.1" xmlns:xlink="http://www.w3.org/1999/xlink" xmlns:svgjs="http://svgjs.com/svgjs" width="512" height="512" x="0" y="0" viewBox="0 0 512 512" style="enable-background:new 0 0 512 512" xml:space="preserve" class=""><g><g fill-rule="evenodd" clip-rule="evenodd"><path fill="#2d3a4d" d="M278.619 275.924c-5.666 5.61-15.473 1.687-15.473-6.439 0-8.085 9.878-12.033 15.473-6.388a9.08 9.08 0 0 1 0 12.827zm-6.408-30.063c-20.888 0-31.617 25.435-16.705 40.355 14.712 14.719 40.33 4.431 40.33-16.73-.001-13.04-10.619-23.625-23.625-23.625zm-40.548-16.882c-5.678 5.613-15.473 1.68-15.473-6.439 0-7.897 9.604-12.204 15.473-6.388 3.562 3.53 3.519 9.277 0 12.827zm10.297-23.118c9.249 9.238 9.219 24.19 0 33.409-14.727 14.727-40.335 4.418-40.335-16.73 0-20.852 25.461-31.586 40.335-16.679zm-57.257-23.879c-5.696 5.72-15.468 1.617-15.468-6.388 0-7.903 9.631-12.212 15.468-6.388 3.533 3.499 3.533 9.278 0 12.776zm10.301-23.117c-14.733-14.733-40.335-4.419-40.335 16.73 0 20.871 25.386 31.607 40.335 16.679 9.212-9.176 9.212-24.183 0-33.409zm213.733 200.557-11.209-11.255 12.411-12.319 11.174 11.204zm-82.433-23.27c17.193 17.245 45.47 17.27 62.717 0l29.181-29.151c1.19-1.174 1.206-3.17 0-4.36L211.754 96.203c-6.859-6.895-18.028-6.895-24.887 0l-59.822 59.822c-6.864 6.844-6.864 17.998 0 24.892l138.124 138.099c6.301 6.286 16.335 6.895 23.336 1.369 6.948-5.482 17.118-4.898 23.407 1.369zm-102.839-24.335c-3.376 3.397-5.166 7.706-5.166 12.472v91.508a3.084 3.084 0 0 1-3.087 3.093h-79.625v-28.999h36.035c9.734 0 17.658-7.959 17.658-17.693v-65.957c0-.913.253-1.521.902-2.18l19.711-19.721 20.527 20.532zM121.017 442.869c0 6.033-4.882 10.9-10.88 10.9H47.851c-1.704 0-3.087-1.419-3.087-3.092v-92.573a3.08 3.08 0 0 1 3.087-3.092h62.286c5.997 0 10.88 4.867 10.88 10.849zm299.229-117.313 8.254-8.264c6.897-6.918 6.891-18.088 0-24.943L222.056 85.861c-12.542-12.522-32.948-12.522-45.491 0l-59.822 59.822c-12.542 12.573-12.542 32.953 0 45.526l82.854 82.839-19.716 19.721c-3.381 3.397-5.171 7.706-5.171 12.471v65.957a3.08 3.08 0 0 1-3.087 3.092h-36.035v-9.43c0-13.992-11.417-25.45-25.45-25.45H47.851c-9.739 0-17.658 7.959-17.658 17.693v92.573c0 9.734 7.919 17.642 17.658 17.642h62.286c14.033 0 25.45-11.407 25.45-25.45v-9.43h79.625c9.729 0 17.658-7.909 17.658-17.643v-91.508c0-.913.248-1.521.902-2.18l6.94-6.945 14.15 14.144c11.518 11.559 29.855 12.624 42.656 2.535 1.252-1.014 2.971-.862 4.096.253l14.393 14.398c18.438 18.416 46.744 22.385 69.49 10.241l18.094 18.099c2.846 2.841 7.456 2.835 10.302 0l22.667-22.662a7.256 7.256 0 0 0 0-10.292z" data-original="#2d3a4d" class=""></path><g fill="#009ac3"><path d="M357.767 185.937c16.221 0 24.333-19.677 12.902-31.128-7.113-7.148-18.687-7.148-25.795 0-11.447 11.468-3.298 31.128 12.893 31.128zm-2.591-20.837c3.401-3.353 8.644 1.699 5.196 5.171-3.448 3.473-8.611-1.804-5.196-5.171zM348.291 112.984c35.381 0 64.162 28.796 64.162 64.182a7.28 7.28 0 0 0 7.285 7.301 7.277 7.277 0 0 0 7.285-7.301c0-43.397-35.321-78.732-78.733-78.732a7.273 7.273 0 0 0-7.285 7.3c.001 4.005 3.256 7.25 7.286 7.25z" fill="#009ac3" data-original="#009ac3"></path><path d="M348.291 58.231c65.582 0 118.95 53.333 118.95 118.935 0 4.056 3.26 7.301 7.28 7.301s7.285-3.245 7.285-7.301c0-73.612-59.898-133.485-133.515-133.485-4.03 0-7.285 3.245-7.285 7.25 0 4.055 3.255 7.3 7.285 7.3z" fill="#009ac3" data-original="#009ac3"></path></g></g></g></svg>