<svg xmlns="http://www.w3.org/2000/svg" version="1.1" xmlns:xlink="http://www.w3.org/1999/xlink" xmlns:svgjs="http://svgjs.com/svgjs" width="512" height="512" x="0" y="0" viewBox="0 0 512 512" style="enable-background:new 0 0 512 512" xml:space="preserve"><g><g fill-rule="evenodd" clip-rule="evenodd"><path fill="#2d3a4d" d="M256.002 475.67c-91.853-54.803-149.181-154.119-150.661-260.988 15.377-8.568 31.508-15.868 48.096-21.698 2.932 49.328 25.049 94.844 65.541 111.686 5.851 2.434 11.889-3.404 9.617-9.328-5.852-15.259-18.258-46.709-14.21-64.994 10.317 18.707 27.64 34.423 42.945 37.668 3.914.811 7.762-1.673 8.613-5.577 4.75-21.597 3.022-46.033-5.136-72.851 38.15 28.644 31.174 64.639 8.325 108.897-3.435 6.658 4.258 13.534 10.459 9.43 29.278-19.163 50.773-40.71 63.894-64.081 9.08-16.172 14.18-33.206 15.239-50.798a308.992 308.992 0 0 1 47.934 21.648c-1.474 106.867-58.813 206.183-150.656 260.986zM229.587 20.563h-2.768a7.272 7.272 0 0 0-4.839 3.346c-1.901 3.042-1.242 7.098 1.546 9.379 17.546 14.651 31.969 40.304 33.536 59.67.659 8.314-1.024 14.803-5.004 19.417-7.331 8.416-14.317 11.711-20.725 9.683-12.781-4.005-23.893-26.869-25.881-44.968-.648-5.868-7.815-8.682-12.248-4.461-26.792 25.509-39.268 66.015-40.071 105.044-20.365 6.844-40.106 15.716-58.758 26.515-2.241 1.318-3.63 3.701-3.63 6.286 0 116.008 61.529 221.731 161.607 279.949 2.324 1.352 4.967 1.351 7.29 0 100.086-58.219 161.612-163.931 161.612-279.949 0-2.586-1.384-4.968-3.64-6.286-18.712-10.849-38.545-19.772-59.006-26.616-2.366-32.613-17.923-65.579-44.978-95.969-22.89-25.704-52.983-47.807-82.55-60.583a7.436 7.436 0 0 0-1.493-.457zm-35.546 72.903c-22.007 28.796-31.66 75.538-23.62 119.138 5.577 30.215 18.88 54.347 37.5 68.846-8.451-24.537-16.035-56.831 2.814-72.395 3.968-3.273 9.906-1.583 11.539 3.295 5.349 15.919 18.596 32.041 30.895 38.631 2.824-22.053-1.516-47.554-12.948-75.944-2.51-6.256 4.249-12.315 10.175-9.125 32.36 17.186 49.252 38.885 51.65 66.311 1.399 16.02-2.545 32.345-8.228 47.25 36.547-30.215 53.404-64.537 50.16-102.256-4.223-49.328-43.245-96.172-86.094-124.867 11.914 20.201 21.587 50.638 5.171 69.556-14.297 16.477-27.503 16.73-36.071 14.043-16.416-5.119-27.671-24.739-32.943-42.483z" data-original="#2d3a4d"></path><g fill="#009ac3"><path d="M256.002 402.818c-8.583 0-15.579 6.996-15.579 15.564 0 8.619 6.996 15.564 15.579 15.564s15.569-6.945 15.569-15.564c.001-8.567-6.985-15.564-15.569-15.564zm0 14.551c1.314 0 1.315 2.028 0 2.028-1.326-.001-1.326-2.028 0-2.028zM222.923 395.468c18.241-18.251 47.909-18.251 66.15 0 2.838 2.834 7.456 2.844 10.301 0a7.274 7.274 0 0 0 0-10.292c-23.919-23.929-62.834-23.929-86.748 0a7.274 7.274 0 0 0 0 10.292c2.849 2.838 7.463 2.838 10.297 0z" fill="#009ac3" data-original="#009ac3"></path><path d="M193.625 366.165c34.398-34.373 90.357-34.373 124.755 0a7.288 7.288 0 0 0 10.296 0 7.273 7.273 0 0 0 0-10.291c-40.076-40.101-105.277-40.101-145.358 0a7.273 7.273 0 0 0 0 10.291 7.301 7.301 0 0 0 10.307 0z" fill="#009ac3" data-original="#009ac3"></path></g></g></g></svg>