<svg xmlns="http://www.w3.org/2000/svg" version="1.1" xmlns:xlink="http://www.w3.org/1999/xlink" xmlns:svgjs="http://svgjs.com/svgjs" width="512" height="512" x="0" y="0" viewBox="0 0 512 512" style="enable-background:new 0 0 512 512" xml:space="preserve" class=""><g><g fill-rule="evenodd" clip-rule="evenodd"><path fill="#2d3a4d" d="M151.729 428.177c-15.716 0-28.497-12.771-28.497-28.483 0-15.704 12.781-28.485 28.497-28.485 15.701 0 28.481 12.781 28.481 28.485.001 15.712-12.78 28.483-28.481 28.483zm7.28-70.904v-142.51c0-4.02-3.26-7.284-7.28-7.284a7.28 7.28 0 0 0-7.285 7.284v142.51c-20.289 3.468-35.782 21.163-35.782 42.421 0 21.259 15.493 38.953 35.782 42.431v37.215a7.282 7.282 0 1 0 14.565 0v-37.215c20.279-3.477 35.767-21.172 35.767-42.431s-15.488-38.954-35.767-42.421zm96.993-34.379c-15.716 0-28.497-12.781-28.497-28.486 0-15.714 12.781-28.493 28.497-28.493 15.701 0 28.482 12.779 28.482 28.493 0 15.705-12.781 28.486-28.482 28.486zm7.286-70.916v-37.215c0-4.02-3.265-7.284-7.285-7.284s-7.285 3.263-7.285 7.284v37.215c-20.289 3.468-35.777 21.172-35.777 42.431 0 21.249 15.488 38.954 35.777 42.421v142.51c0 4.02 3.265 7.284 7.285 7.284s7.285-3.264 7.285-7.284V336.83c20.274-3.468 35.767-21.172 35.767-42.421-.001-21.259-15.494-38.964-35.767-42.431zm96.988 176.199c-15.701 0-28.481-12.771-28.481-28.483 0-15.704 12.781-28.485 28.481-28.485 15.716 0 28.497 12.781 28.497 28.485 0 15.712-12.781 28.483-28.497 28.483zm43.062-28.483c0-21.259-15.488-38.953-35.777-42.421v-142.51c0-4.02-3.265-7.284-7.285-7.284s-7.285 3.263-7.285 7.284v142.51c-20.274 3.468-35.767 21.163-35.767 42.421 0 21.259 15.493 38.953 35.767 42.431v37.215c0 4.02 3.265 7.284 7.285 7.284s7.285-3.264 7.285-7.284v-37.215c20.289-3.478 35.777-21.172 35.777-42.431z" data-original="#2d3a4d"></path><g fill="#009ac3"><path d="M273.665 139.478c0-9.742-7.924-17.667-17.663-17.667-9.744 0-17.668 7.925-17.668 17.667 0 9.739 7.924 17.665 17.668 17.665 9.739 0 17.663-7.926 17.663-17.665zm-20.76 0c0-4.082 6.195-4.078 6.195 0 0 4.075-6.195 4.079-6.195 0zM213.29 109.467c23.549-23.551 61.871-23.551 85.424 0a7.222 7.222 0 0 0 5.146 2.137c6.446 0 9.74-7.844 5.156-12.44-29.232-29.222-76.801-29.222-106.033.01-2.844 2.836-2.844 7.448 0 10.294a7.29 7.29 0 0 0 10.307-.001z" fill="#009ac3" data-original="#009ac3"></path><path d="M176.591 72.778c43.787-43.792 115.036-43.792 158.813 0 2.844 2.836 7.457 2.846 10.302 0a7.28 7.28 0 0 0 0-10.304c-49.46-49.463-129.952-49.463-179.412 0a7.289 7.289 0 0 0 0 10.304c2.842 2.839 7.462 2.833 10.297 0z" fill="#009ac3" data-original="#009ac3"></path></g></g></g></svg>