<svg xmlns="http://www.w3.org/2000/svg" version="1.1" xmlns:xlink="http://www.w3.org/1999/xlink" xmlns:svgjs="http://svgjs.com/svgjs" width="512" height="512" x="0" y="0" viewBox="0 0 512 512" style="enable-background:new 0 0 512 512" xml:space="preserve"><g><g fill-rule="evenodd" clip-rule="evenodd"><path fill="#2d3a4d" d="M351.817 401.142h-21.8v-17.004h21.8zm3.245-31.574h-28.238c-6.287 0-11.356 5.1-11.356 11.351v23.437c0 6.251 5.07 11.351 11.356 11.351h28.238c6.236 0 11.356-5.1 11.356-11.351v-23.437c0-6.251-5.12-11.351-11.356-11.351zm-178.048 31.574h-21.8v-17.004h21.8zm3.194-31.574H151.97c-6.236 0-11.356 5.1-11.356 11.351v23.437c0 6.251 5.12 11.351 11.356 11.351h28.238c6.286 0 11.356-5.1 11.356-11.351v-23.437c0-6.251-5.07-11.351-11.356-11.351zm99.467 26.737h-52.319v-7.336h52.319zm3.701-21.901h-59.721c-5.982 0-10.849 4.867-10.849 10.849v14.773c0 5.977 4.867 10.844 10.849 10.844h59.721c5.982 0 10.849-4.867 10.849-10.844v-14.773c0-5.982-4.867-10.849-10.849-10.849zm189.049 99.138V217.791c0-18.043-12.472-32.72-27.833-32.72H67.407c-15.31 0-27.782 14.677-27.782 32.72v255.751c0 2.028 1.217 3.371 2.079 3.371h16.375c.811 0 2.078-1.343 2.078-3.371V234.455c0-13.207 9.785-23.944 21.901-23.944h347.933c12.066 0 21.901 10.738 21.901 23.944v239.087c0 2.028 1.267 3.371 2.078 3.371h16.375c.813 0 2.08-1.343 2.08-3.371zm-27.832-303.036H67.407c-23.371 0-42.383 21.212-42.383 47.285v255.751c0 9.896 7.503 17.936 16.679 17.936h16.375c9.176 0 16.629-8.04 16.629-17.936V234.455c0-5.085 3.346-9.379 7.351-9.379h347.933c3.954 0 7.351 4.294 7.351 9.379v239.087c0 9.896 7.452 17.936 16.629 17.936h16.375c9.176 0 16.629-8.04 16.629-17.936V217.791c0-26.073-19.011-47.285-42.382-47.285zm-54.702 144.537h-23.827l-8.061-9.855h31.888c2.687 0 4.918 2.251 4.918 4.923s-2.231 4.932-4.918 4.932zm-3.651 49.242c0-.877-.203-1.633-1.065-2.682l-7.098-8.761H128.953l-7.098 8.761c-.862 1.049-1.065 1.805-1.065 2.682v59.904c0 2.834 3.397 5.328 7.25 5.328h250.95c3.853 0 7.25-2.494 7.25-5.328zm-28.897 98.225c0 .923-.76 1.699-1.673 1.699h-38.226c-.913 0-1.724-.776-1.724-1.699v-18.423h41.622v18.423zm-166.032 0c0 .923-.811 1.699-1.724 1.699h-38.226c-.913 0-1.673-.776-1.673-1.699v-18.423h41.622v18.423zm-74.17-147.467c-2.687 0-4.918-2.261-4.918-4.933s2.231-4.923 4.918-4.923h31.888l-8.061 9.855h-23.827zm63.118-25.151c8.213-10.109 20.735-15.676 35.234-15.676h76.046c14.499 0 26.971 5.567 35.234 15.676l39.391 48.385H140.816zm209.632.725h-43.752l-8.061-9.921c-11.052-13.577-27.579-21.045-46.54-21.045h-76.046c-18.96 0-35.488 7.468-46.54 21.045l-8.061 9.921h-43.752c-10.748 0-19.468 8.745-19.468 19.493 0 10.753 8.72 19.503 19.468 19.503h11.965l-18.555 22.783c-2.89 3.513-4.309 7.508-4.309 11.889v59.904c0 10.971 9.784 19.898 21.8 19.898h7.047v18.423c0 8.973 7.3 16.264 16.274 16.264h38.226c8.973 0 16.274-7.29 16.274-16.264v-18.423h95.31v18.423c0 8.973 7.3 16.264 16.274 16.264h38.226c8.973 0 16.274-7.29 16.274-16.264v-18.423h7.047c12.015 0 21.8-8.928 21.8-19.898v-59.904c0-4.38-1.47-8.385-4.309-11.889l-18.555-22.783h11.965c10.748 0 19.468-8.75 19.468-19.503-.003-10.747-8.723-19.493-19.47-19.493z" data-original="#2d3a4d"></path><g fill="#009ac3"><path d="M256 118.014c-9.784 0-17.744 7.975-17.744 17.78 0 9.8 7.959 17.774 17.744 17.774 9.835 0 17.795-7.975 17.795-17.774 0-9.805-7.96-17.78-17.795-17.78zm-3.194 17.78c0-4.266 6.438-4.191 6.438 0 0 4.185-6.438 4.261-6.438 0zM212.806 105.396c23.828-23.838 62.611-23.838 86.438 0a7.256 7.256 0 0 0 5.171 2.139c6.374 0 9.718-7.827 5.12-12.431-29.506-29.526-77.516-29.526-107.072 0a7.283 7.283 0 0 0 0 10.292c2.84 2.849 7.453 2.849 10.343 0z" fill="#009ac3" data-original="#009ac3"></path><path d="M175.696 68.311c44.258-44.294 116.35-44.294 160.659 0a7.275 7.275 0 0 0 5.12 2.124c6.514 0 9.73-7.864 5.171-12.431-49.987-49.977-131.305-49.977-181.292 0a7.301 7.301 0 0 0 0 10.307c2.89 2.834 7.503 2.834 10.342 0z" fill="#009ac3" data-original="#009ac3"></path></g></g></g></svg>