<svg xmlns="http://www.w3.org/2000/svg" version="1.1" xmlns:xlink="http://www.w3.org/1999/xlink" xmlns:svgjs="http://svgjs.com/svgjs" width="512" height="512" x="0" y="0" viewBox="0 0 512 512" style="enable-background:new 0 0 512 512" xml:space="preserve" class=""><g><g fill-rule="evenodd" clip-rule="evenodd"><path fill="#2d3a4d" d="M304.593 369.759c-15.528 26.853-49.81 36.029-76.654 20.532-26.768-15.463-35.995-49.832-20.532-76.616 15.625-27.046 50.144-35.839 76.654-20.53 26.768 15.471 35.995 49.839 20.532 76.614zm-13.283-89.231c-33.713-19.48-77.009-7.876-96.476 25.861-19.519 33.739-7.909 77.036 25.855 96.516 33.433 19.296 76.82 8.202 96.476-25.863 19.519-33.737 7.91-77.031-25.855-96.514zm102.865 79.792v-37.207c0-5.709-4.664-10.361-10.342-10.361h-3.549c-10.089 0-18.859-5.741-22.865-14.995a108.846 108.846 0 0 0-12.674-21.841c-5.982-8.11-6.59-18.58-1.572-27.319l1.825-3.09c2.839-4.943 1.115-11.284-3.802-14.139l-32.243-18.608c-2.383-1.38-5.171-1.738-7.858-1.019-4.649 1.244-5.992 4.291-8.061 7.885-5.019 8.732-14.398 13.441-24.385 12.304a111.354 111.354 0 0 0-25.298 0c-10.038 1.137-19.366-3.573-24.385-12.304l-1.774-3.069c-2.888-4.925-9.243-6.661-14.145-3.797l-32.243 18.608a10.238 10.238 0 0 0-4.816 6.293c-1.231 4.649.709 7.327 2.788 10.925 5.07 8.749 4.461 19.209-1.572 27.319a110.925 110.925 0 0 0-12.623 21.851c-4.005 9.254-12.776 14.995-22.865 14.995h-3.549c-5.678 0-10.342 4.652-10.342 10.361v37.207c0 5.71 4.664 10.353 10.342 10.353h3.549c10.089 0 18.859 5.749 22.865 15.003 3.346 7.721 7.604 15.062 12.623 21.851 6.033 8.1 6.641 18.57 1.572 27.319l-1.774 3.079c-2.839 4.943-1.166 11.284 3.802 14.14l32.243 18.608c2.332 1.37 5.171 1.739 7.858 1.02 4.579-1.237 6.014-4.334 8.061-7.886 5.019-8.731 14.398-13.441 24.385-12.304 8.365.96 16.882.96 25.298 0 9.874-1.162 19.329 3.522 24.385 12.304l1.774 3.07c2.89 4.953 9.227 6.652 14.145 3.796l32.243-18.608a10.238 10.238 0 0 0 4.816-6.293c1.231-4.65-.71-7.328-2.788-10.926-5.07-8.749-4.461-19.219 1.572-27.319a110.93 110.93 0 0 0 12.624-21.851c4.005-9.254 12.776-15.003 22.865-15.003h3.549c5.677.002 10.341-4.642 10.341-10.352zm-10.342-62.135h-3.549c-4.259 0-7.807-2.321-9.531-6.226-3.751-8.741-8.568-17.053-14.297-24.726-2.535-3.418-2.788-7.663-.659-11.352l1.775-3.089c6.895-11.896 2.788-27.172-9.075-34.04l-32.243-18.607c-11.914-6.866-27.174-2.777-34.068 9.119l-1.774 3.079c-2.129 3.68-5.932 5.594-10.14 5.107a125.775 125.775 0 0 0-28.542.01c-4.259.485-8.061-1.427-10.139-5.117l-1.774-3.079c-6.895-11.896-22.155-15.985-34.069-9.119l-32.243 18.607c-11.871 6.869-15.95 22.165-9.125 34.04l1.774 3.08c2.129 3.689 1.927 7.933-.659 11.353a126.436 126.436 0 0 0-14.297 24.735c-1.673 3.905-5.222 6.226-9.48 6.226h-3.549c-13.739 0-24.892 11.187-24.892 24.929v37.207c0 13.742 11.154 24.921 24.892 24.921h3.549c4.258 0 7.807 2.331 9.48 6.234a124.159 124.159 0 0 0 14.347 24.734c2.535 3.42 2.738 7.664.608 11.344l-1.774 3.079c-6.82 11.878-2.753 27.18 9.125 34.05l32.243 18.607c11.914 6.866 27.174 2.777 34.069-9.129l1.724-3.069c2.129-3.689 5.931-5.593 10.19-5.117a125.315 125.315 0 0 0 28.542 0c4.258-.475 8.01 1.428 10.14 5.117l1.774 3.069c6.943 12.02 22.286 15.93 34.068 9.129l32.243-18.607c11.863-6.866 15.969-22.142 9.075-34.04l-1.775-3.079c-2.129-3.69-1.876-7.934.659-11.354a121.519 121.519 0 0 0 14.297-24.734c1.724-3.903 5.272-6.234 9.531-6.234h3.549c13.739 0 24.892-11.179 24.892-24.921v-37.207c0-13.743-11.154-24.93-24.892-24.93z" data-original="#2d3a4d"></path><g fill="#009ac3"><path d="M274.479 147.807c0-10.186-8.314-18.48-18.504-18.48-10.139 0-18.454 8.294-18.454 18.48 0 10.179 8.314 18.463 18.454 18.463 10.19 0 18.504-8.284 18.504-18.463zm-14.601 0c0 5.164-7.807 5.104-7.807 0 0-5.127 7.807-5.186 7.807 0zM209.536 115.06c25.602-25.61 67.275-25.61 92.877 0 1.47 1.418 3.295 2.127 5.171 2.127 6.509 0 9.733-7.863 5.171-12.431-31.295-31.338-82.194-31.36-113.51 0a7.298 7.298 0 0 0 0 10.304 7.29 7.29 0 0 0 10.291 0z" fill="#009ac3" data-original="#009ac3" class=""></path><path d="M169.993 75.504c47.402-47.423 124.562-47.423 172.015 0a7.264 7.264 0 0 0 5.12 2.127c6.511 0 9.732-7.865 5.171-12.43-53.08-53.095-139.518-53.095-192.598 0-2.839 2.843-2.839 7.458 0 10.304a7.271 7.271 0 0 0 10.292-.001z" fill="#009ac3" data-original="#009ac3" class=""></path></g></g></g></svg>