<svg xmlns="http://www.w3.org/2000/svg" version="1.1" xmlns:xlink="http://www.w3.org/1999/xlink" xmlns:svgjs="http://svgjs.com/svgjs" width="512" height="512" x="0" y="0" viewBox="0 0 512 512" style="enable-background:new 0 0 512 512" xml:space="preserve" class=""><g><g fill-rule="evenodd" clip-rule="evenodd"><path fill="#2d3a4d" d="M238.839 289.149h-3.904v-30.317h3.904zm3.599-44.917h-11.103c-6.084 0-11.001 4.968-11.001 11.001v37.516a10.991 10.991 0 0 0 11.001 11.001h11.103c6.033 0 10.951-4.918 10.951-11.001v-37.516c0-6.033-4.918-11.001-10.951-11.001zm-73.358 44.917h-3.904v-30.317h3.904zm14.55 3.6v-37.516c0-6.033-4.918-11.001-10.951-11.001h-11.103c-6.084 0-11.001 4.968-11.001 11.001v37.516a10.991 10.991 0 0 0 11.001 11.001h11.103c6.033 0 10.951-4.917 10.951-11.001zm27.883 51.153c0 .76-.608 1.369-1.369 1.369H193.82c-.71 0-1.318-.608-1.318-1.369v-16.325c0-.71.608-1.369 1.318-1.369h16.325c.76 0 1.369.659 1.369 1.369v16.325zm-1.368-32.243H193.82c-8.771 0-15.919 7.148-15.919 15.919v16.325c0 8.771 7.148 15.919 15.919 15.919h16.325c8.821 0 15.969-7.148 15.969-15.919v-16.325c0-8.771-7.148-15.919-15.969-15.919zm-8.163 85.83c52.674 0 95.462-42.788 95.462-95.463 0-52.623-42.788-95.412-95.462-95.412-52.624 0-95.412 42.788-95.412 95.412 0 52.675 42.789 95.463 95.412 95.463zm0-205.475c-60.634 0-110.013 49.379-110.013 110.012 0 60.685 49.379 110.013 110.013 110.013 60.684 0 110.012-49.328 110.012-110.013.001-60.633-49.327-110.012-110.012-110.012zm237.059 75.133c0 8.162-6.641 14.854-14.854 14.854h-31.838c-8.213 0-14.905-6.692-14.905-14.854v-49.835h61.597zM72.959 396.12c0 19.315 15.665 34.981 34.93 34.981h188.187c19.315 0 34.981-15.665 34.981-34.981V207.933c0-19.265-15.666-34.93-34.981-34.93H107.889c-19.265 0-34.93 15.666-34.93 34.93zm370.797-193.409h-1.724v-37.009c0-4.005-3.245-7.301-7.3-7.301-4.005 0-7.3 3.295-7.3 7.301v37.009h-38.378v-37.009c0-4.005-3.245-7.301-7.25-7.301-4.056 0-7.3 3.295-7.3 7.301v37.009h-1.724c-5.475 0-9.886 4.461-9.886 9.886v54.55c0 16.223 13.181 29.404 29.455 29.404h8.618V476.17c0 .406-.355.71-.71.71H209.992a.725.725 0 0 1-.71-.71v-30.52h86.793c27.326 0 49.531-22.205 49.531-49.531V207.933c0-27.275-22.205-49.531-49.531-49.531H107.889c-27.275 0-49.531 22.256-49.531 49.531V396.12c0 27.326 22.256 49.531 49.531 49.531h86.844v30.52c0 8.416 6.844 15.311 15.26 15.311h190.266c8.416 0 15.31-6.895 15.31-15.311v-179.62h8.619c16.223 0 29.455-13.181 29.455-29.404v-54.55c-.001-5.424-4.462-9.886-9.887-9.886z" data-original="#2d3a4d" class=""></path><g fill="#009ac3"><path d="M201.982 109.124c-9.278 0-16.831 7.554-16.831 16.831 0 9.278 7.554 16.831 16.831 16.831s16.831-7.554 16.831-16.831c.001-9.277-7.553-16.831-16.831-16.831zm-2.23 16.832c0-2.962 4.512-2.926 4.512 0 0 2.986-4.512 3.023-4.512 0zM163.148 98.782c21.495-21.441 56.174-21.439 77.719 0 1.369 1.419 3.245 2.129 5.12 2.129 6.497 0 9.74-7.852 5.171-12.421-27.115-27.116-71.165-27.137-98.301 0a7.283 7.283 0 0 0 0 10.292 7.282 7.282 0 0 0 10.291 0z" fill="#009ac3" data-original="#009ac3" class=""></path><path d="M129.435 65.069c40-40 105.145-40 145.145 0a7.265 7.265 0 0 0 5.12 2.129c6.497 0 9.74-7.852 5.171-12.421-45.678-45.678-120.05-45.678-165.728 0a7.283 7.283 0 0 0 0 10.292 7.283 7.283 0 0 0 10.292 0z" fill="#009ac3" data-original="#009ac3" class=""></path></g></g></g></svg>