<svg xmlns="http://www.w3.org/2000/svg" version="1.1" xmlns:xlink="http://www.w3.org/1999/xlink" xmlns:svgjs="http://svgjs.com/svgjs" width="512" height="512" x="0" y="0" viewBox="0 0 512 512" style="enable-background:new 0 0 512 512" xml:space="preserve" class=""><g><g fill-rule="evenodd" clip-rule="evenodd"><path fill="#2d3a4d" d="M443.668 329.605h-47.152v138.961h47.152zm-61.72 121.622v-100.43h-2.844c-14.112 0-25.933-10.089-28.106-24.03-1.226-7.859-8.352-14.044-16.73-13.891l-4.03.101h-70.275c-2.598 0-4.713 2.079-4.713 4.664v10.494c0 8.365 6.811 15.209 15.183 15.209h40.714c10.63 0 19.281 8.618 19.281 19.265v66.362c0 22.003-17.904 39.949-39.912 39.949h-109.27c5.888 4.816 13.88 7.503 24.155 8.01l96.698-.051c22.311 0 25.307-5.475 28.48-11.305 3.301-6.084 7.822-14.348 25.146-14.348h26.223zm-254.667-9.885h31.375c7.038 0 12.763-5.729 12.763-12.725 0-7.047-5.725-12.776-12.763-12.776h-31.375c-7.038 0-12.763 5.729-12.763 12.776 0 6.996 5.725 12.725 12.763 12.725zm0-40.102c-7.039 0-12.763-5.678-12.763-12.725s5.725-12.775 12.761-12.775h47.966c7.036 0 12.761 5.729 12.761 12.775 0 7.047-5.725 12.725-12.761 12.725zm0-65.601c-7.038 0-12.763 5.729-12.763 12.775 0 7.047 5.725 12.776 12.763 12.776h31.375c7.038 0 12.763-5.729 12.763-12.776s-5.725-12.775-12.763-12.775zm-46.186-14.551h49.872v-25.551H81.095c-7.038 0-12.761 5.729-12.761 12.776s5.723 12.775 12.761 12.775zm64.439-139.518c0-13.992 11.369-25.348 25.344-25.348h119.639c13.976 0 25.345 11.356 25.345 25.348v116.806h-55.897c-10.633 0-19.28 8.669-19.28 19.265v10.494c0 16.426 13.345 29.759 29.75 29.759h40.714c2.6 0 4.713 2.129 4.713 4.715v66.362c0 13.992-11.369 25.348-25.345 25.348H170.878a22.81 22.81 0 0 1-2.634-.152c15.845-5.974 22.53-24.743 14.051-39.24 11.664-3.143 20.279-13.789 20.279-26.413s-8.615-23.321-20.279-26.413c10.469-17.897-2.435-41.014-23.639-41.014h-13.122zm312.701 140.735v153.561c0 4.005-3.26 7.301-7.284 7.301h-61.72c-4.022 0-7.284-3.295-7.284-7.301v-10.089h-26.222c-8.678 0-9.682 1.876-12.359 6.793-5.432 9.937-12.674 18.859-41.259 18.859l-96.887.051h-.348c-20.39-.963-34.911-8.973-43.219-23.675-7.678-1.876-14.732-6.033-20.145-11.863h-14.229c-15.071 0-27.331-12.269-27.331-27.326 0-7.96 3.387-15.057 8.781-20.076-11.707-10.784-11.702-29.211-.002-40.101-9.065-8.352-11.433-21.852-5.604-32.801h-22.03c-15.07 0-27.331-12.269-27.331-27.326s12.26-27.326 27.331-27.326h49.872V181.57c0-22.003 17.906-39.898 39.912-39.898h119.639c22.008 0 39.912 17.896 39.912 39.898v116.806l3.634-.051c15.632-.202 28.986 11.143 31.329 26.21 1.06 6.793 6.826 11.711 13.712 11.711h2.844v-13.942c0-4.005 3.262-7.25 7.284-7.25h61.72c4.025.001 7.284 3.246 7.284 7.251z" data-original="#2d3a4d"></path><g fill="#009ac3"><path d="M230.699 114.65c7.9 0 14.33-6.438 14.33-14.347s-6.43-14.297-14.33-14.297c-7.901 0-14.329 6.388-14.329 14.297-.001 7.909 6.427 14.347 14.329 14.347zM203.355 81.596c15.078-15.057 39.611-15.057 54.687 0a7.27 7.27 0 0 0 5.151 2.129c6.441 0 9.747-7.832 5.151-12.421-20.758-20.735-54.533-20.735-75.291 0a7.275 7.275 0 0 0 0 10.291c2.843 2.84 7.455 2.84 10.302.001z" fill="#009ac3" data-original="#009ac3" class=""></path><path d="M178.442 56.704c28.814-28.847 75.699-28.847 104.513 0 2.84 2.837 7.457 2.84 10.302 0a7.274 7.274 0 0 0 0-10.292c-34.496-34.525-90.621-34.525-125.115 0a7.27 7.27 0 0 0 0 10.292 7.293 7.293 0 0 0 10.3 0zM230.699 171.938c-4.024 0-7.283 3.245-7.283 7.25v57.237c0 4.056 3.26 7.3 7.283 7.3a7.278 7.278 0 0 0 7.284-7.3v-57.237c-.001-4.005-3.262-7.25-7.284-7.25z" fill="#009ac3" data-original="#009ac3" class=""></path><path d="M247.397 187.755c-1.933 3.549-.64 7.959 2.889 9.886 13.11 7.199 21.253 20.938 21.253 35.843 0 22.56-18.32 40.862-40.841 40.862s-40.842-18.302-40.842-40.862c0-14.905 8.143-28.644 21.255-35.843 3.527-1.927 4.82-6.337 2.887-9.886-1.933-3.498-6.359-4.816-9.888-2.89-17.778 9.734-28.822 28.391-28.822 48.618 0 30.57 24.856 55.412 55.41 55.412 30.553 0 55.408-24.842 55.408-55.412 0-20.228-11.044-38.885-28.822-48.618-3.528-1.926-7.954-.608-9.887 2.89z" fill="#009ac3" data-original="#009ac3" class=""></path></g></g></g></svg>