<svg xmlns="http://www.w3.org/2000/svg" version="1.1" xmlns:xlink="http://www.w3.org/1999/xlink" xmlns:svgjs="http://svgjs.com/svgjs" width="512" height="512" x="0" y="0" viewBox="0 0 512 512" style="enable-background:new 0 0 512 512" xml:space="preserve" class=""><g><g fill-rule="evenodd" clip-rule="evenodd"><path fill="#2d3a4d" d="M382.007 469.916c0 3.853-3.143 6.996-6.996 6.996H136.989c-3.904 0-7.047-3.143-7.047-6.996V42.084a7.032 7.032 0 0 1 7.047-7.047h238.022c3.853 0 6.996 3.143 6.996 7.047zm-6.996-449.429H136.989c-11.914 0-21.597 9.683-21.597 21.597v427.832c0 11.914 9.683 21.597 21.597 21.597h238.022c11.914 0 21.597-9.683 21.597-21.597V42.084c0-11.914-9.683-21.597-21.597-21.597zm-24.639 424.79V66.672H196.963l110.621 31.28c10.342 2.94 17.338 12.116 17.338 22.915v270.265c0 10.748-6.996 19.975-17.338 22.915l-110.621 31.229h153.409zM303.63 111.944 161.577 71.793v368.364l142.053-40.152c4.056-1.166 6.743-4.664 6.743-8.872V120.867c-.001-4.258-2.687-7.756-6.743-8.923zm54.043-59.822H154.277a7.249 7.249 0 0 0-7.25 7.25v393.206c0 4.005 3.245 7.3 7.25 7.3h203.396c4.005 0 7.301-3.295 7.301-7.3V59.372c-.001-4.005-3.296-7.25-7.301-7.25z" data-original="#2d3a4d" class=""></path><g fill="#009ac3"><path d="M237.47 249.638c-8.01 0-14.499 6.489-14.499 14.499s6.489 14.499 14.499 14.499 14.499-6.489 14.499-14.499c.001-8.01-6.489-14.499-14.499-14.499zM209.334 244.821c15.743-15.604 40.747-15.526 56.273 0a7.291 7.291 0 0 0 5.171 2.129c6.399 0 9.708-7.833 5.12-12.421-21.137-21.242-55.662-21.246-76.907 0a7.283 7.283 0 0 0 0 10.292c2.839 2.839 7.453 2.839 10.343 0z" fill="#009ac3" data-original="#009ac3"></path><path d="M183.782 219.27c29.627-29.627 77.749-29.627 107.376 0 1.419 1.419 3.295 2.18 5.12 2.18 6.314 0 9.835-7.808 5.171-12.472-35.372-35.373-92.587-35.372-127.959 0a7.283 7.283 0 0 0 0 10.292 7.283 7.283 0 0 0 10.292 0z" fill="#009ac3" data-original="#009ac3"></path></g></g></g></svg>