<svg xmlns="http://www.w3.org/2000/svg" version="1.1" xmlns:xlink="http://www.w3.org/1999/xlink" xmlns:svgjs="http://svgjs.com/svgjs" width="512" height="512" x="0" y="0" viewBox="0 0 512 512" style="enable-background:new 0 0 512 512" xml:space="preserve" class=""><g><g fill-rule="evenodd" clip-rule="evenodd"><path fill="#009ac3" d="M374.547 162.497a7.275 7.275 0 0 0-7.285 7.28c0 4.02 3.26 7.285 7.285 7.285h23.772a7.29 7.29 0 0 0 7.285-7.285c0-4.03-3.265-7.28-7.285-7.28z" data-original="#009ac3"></path><path fill="#2d3a4d" d="M338.486 406.638c0 13.044-10.616 23.655-23.66 23.655H197.169c-13.039 0-23.655-10.611-23.655-23.655V295.936h164.973v110.702zm-38.828 58.571c0 6.469-5.262 11.731-11.731 11.731h-63.858c-6.464 0-11.731-5.262-11.731-11.731v-20.345h87.32zm-93.699-339.092c0-11.792 9.587-21.379 21.374-21.379 11.792 0 21.389 9.587 21.389 21.379v155.249h-42.763zm78.703-21.379c11.792 0 21.384 9.587 21.384 21.379v155.249h-42.758V126.117c0-11.792 9.586-21.379 21.374-21.379zm61.11 176.628h-25.156V126.117c0-19.823-16.132-35.944-35.954-35.944-11.691 0-22.094 5.612-28.659 14.286-6.575-8.674-16.973-14.286-28.669-14.286-19.823 0-35.944 16.122-35.944 35.944v155.249h-25.161a7.282 7.282 0 0 0-7.285 7.285v117.987c0 21.085 17.151 38.226 38.226 38.226h.603v20.345c0 14.499 11.802 26.302 26.297 26.302h63.858c14.499 0 26.302-11.802 26.302-26.302v-20.345h.598c21.075 0 38.226-17.141 38.226-38.226V288.651a7.282 7.282 0 0 0-7.282-7.285z" data-original="#2d3a4d"></path><g fill="#009ac3"><path d="m344.748 91.192 16.811-16.811a7.265 7.265 0 0 0 0-10.292 7.277 7.277 0 0 0-10.302 0l-16.811 16.806c-2.844 2.839-2.844 7.452 0 10.297 2.849 2.849 7.458 2.859 10.302 0zM255.673 58.832a7.28 7.28 0 0 0 7.285-7.285V27.775a7.283 7.283 0 0 0-7.285-7.285 7.29 7.29 0 0 0-7.285 7.285v23.772a7.286 7.286 0 0 0 7.285 7.285zM177.093 81.346 160.281 64.54a7.285 7.285 0 0 0-10.301 0 7.298 7.298 0 0 0 0 10.297l16.811 16.811a7.307 7.307 0 0 0 5.156 2.134c6.408 0 9.761-7.825 5.146-12.436zM137.453 163.136h-23.777c-4.02 0-7.28 3.265-7.28 7.285s3.26 7.285 7.28 7.285h23.777c4.02 0 7.285-3.265 7.285-7.285s-3.265-7.285-7.285-7.285zM256.002 382.709c-8.076 0-14.651 6.575-14.651 14.657 0 8.076 6.575 14.651 14.651 14.651 8.071 0 14.646-6.575 14.646-14.651.001-8.081-6.574-14.657-14.646-14.657zm-.086 14.657h.167c.001.086-.167.086-.167 0zM227.181 377.559c15.889-15.899 41.749-15.899 57.638 0a7.293 7.293 0 0 0 5.156 2.129c6.439 0 9.745-7.84 5.146-12.431-21.567-21.571-56.674-21.571-78.246 0a7.286 7.286 0 0 0 10.306 10.302z" fill="#009ac3" data-original="#009ac3"></path><path d="M201.133 351.516c30.251-30.261 79.483-30.261 109.734 0a7.279 7.279 0 0 0 5.156 2.124c6.459 0 9.735-7.846 5.146-12.431-35.934-35.929-94.408-35.929-130.342 0a7.292 7.292 0 0 0 0 10.307 7.29 7.29 0 0 0 10.306 0z" fill="#009ac3" data-original="#009ac3"></path></g></g></g></svg>