<svg xmlns="http://www.w3.org/2000/svg" version="1.1" xmlns:xlink="http://www.w3.org/1999/xlink" xmlns:svgjs="http://svgjs.com/svgjs" width="512" height="512" x="0" y="0" viewBox="0 0 512 512" style="enable-background:new 0 0 512 512" xml:space="preserve" class=""><g><g fill-rule="evenodd" clip-rule="evenodd"><path fill="#2d3a4d" d="M401.884 408.877H110.129V232.958l145.879-100.38 145.877 100.38v175.919zm76.253 41.318c0 14.753-11.997 26.717-26.743 26.717H60.616c-14.746 0-26.743-11.964-26.743-26.717s11.997-26.768 26.743-26.768h390.779c14.746 0 26.742 12.015 26.742 26.768zM62.161 248.269l189.718-130.494a7.236 7.236 0 0 1 8.256 0l189.718 130.494c5.006 3.397 11.084 4.715 17.114 3.599 20.194-3.735 25.353-29.931 8.809-41.318L256.007 59.422 36.238 210.55c-10.336 7.112-13.003 21.496-5.882 31.838 7.148 10.342 21.416 13.029 31.805 5.881zm47.968-207.25v101.039l44.523-30.621V41.019c0-3.295-2.687-5.982-5.993-5.982h-32.535c-3.306 0-5.995 2.687-5.995 5.982zm331.467 219.214c16.878 11.643 40.28 7.502 52.063-9.632 11.678-16.981 7.314-40.382-9.63-52.066L260.135 44.568a7.236 7.236 0 0 0-8.256 0l-82.66 56.831v-60.38c0-11.305-9.222-20.532-20.56-20.532h-32.535c-11.338 0-20.562 9.227-20.562 20.532v111.077l-67.578 46.438C10.986 210.25 6.679 233.623 18.353 250.6c11.661 16.957 35.108 21.322 52.063 9.632l25.145-17.288v165.931H60.616c-22.778 0-41.31 18.504-41.31 41.318 0 22.763 18.532 41.318 41.31 41.318h390.779c22.78 0 41.31-18.555 41.31-41.318 0-22.814-18.53-41.318-41.31-41.318h-34.943v-165.93z" data-original="#2d3a4d" class=""></path><g fill="#009ac3"><path d="M274.316 355.645c0-10.089-8.214-18.302-18.309-18.302-10.096 0-18.31 8.213-18.31 18.302s8.214 18.301 18.31 18.301c10.095 0 18.309-8.212 18.309-18.301zm-18.309-3.752c4.926 0 4.926 7.503 0 7.503s-4.926-7.503 0-7.503zM210.314 323.452c25.195-25.196 66.19-25.196 91.384 0a7.264 7.264 0 0 0 5.149 2.129c6.446 0 9.741-7.838 5.151-12.421-30.874-30.875-81.109-30.875-111.983 0a7.271 7.271 0 0 0 0 10.291 7.29 7.29 0 0 0 10.299.001z" fill="#009ac3" data-original="#009ac3"></path><path d="M171.338 284.466c46.84-46.794 122.505-46.823 169.34 0a7.26 7.26 0 0 0 5.149 2.129c6.439 0 9.745-7.828 5.151-12.421-52.533-52.523-137.527-52.479-189.942 0a7.276 7.276 0 0 0 0 10.292 7.295 7.295 0 0 0 10.302 0z" fill="#009ac3" data-original="#009ac3"></path></g></g></g></svg>