<svg xmlns="http://www.w3.org/2000/svg" version="1.1" xmlns:xlink="http://www.w3.org/1999/xlink" xmlns:svgjs="http://svgjs.com/svgjs" width="512" height="512" x="0" y="0" viewBox="0 0 512 512" style="enable-background:new 0 0 512 512" xml:space="preserve" class=""><g><g fill-rule="evenodd" clip-rule="evenodd"><path fill="#2d3a4d" d="M369.411 361.978c0 2.595-2.195 4.791-4.786 4.791h-36.588v-1.536c0-15.92-16.359-26.485-30.783-20.268-4.216-12.045-17.82-18.074-29.561-13.004a21.334 21.334 0 0 0-1.323-3.022h22.728c7.234 0 13.12-5.886 13.12-13.12v-99.934c0-7.234-5.886-13.12-13.12-13.12h-66.19c-7.239 0-13.125 5.886-13.125 13.12v27.807c-8.477 3.077-14.545 11.204-14.545 20.725l-.172 113.799-19.266-29.475c-6.472-9.9-23.391-15.122-33.217-6.961V172.183c0-2.595 2.195-4.786 4.796-4.786h217.247c2.591 0 4.786 2.19 4.786 4.786v189.795zm-81.763-103.407v-41.237h-63.3v26.19a22.164 22.164 0 0 1 14.22 15.047zm-48.284 55.802h48.284v-41.237h-48.284zm74.109 77.394v-26.535a7.503 7.503 0 0 0-7.498-7.498c-4.127 0-7.498 3.361-7.498 7.498a7.28 7.28 0 0 1-7.285 7.285c-4.02 0-7.28-3.265-7.28-7.285v-13.004c0-4.137-3.361-7.498-7.488-7.498a7.503 7.503 0 0 0-7.498 7.498 7.29 7.29 0 0 1-7.285 7.285 7.286 7.286 0 0 1-7.285-7.285v-13.004a7.503 7.503 0 0 0-7.498-7.498c-4.132 0-7.493 3.361-7.493 7.498 0 4.02-3.26 7.285-7.285 7.285a7.29 7.29 0 0 1-7.285-7.285v-74.798c0-4.127-3.361-7.488-7.493-7.488s-7.498 3.361-7.498 7.488l-.178 124.598c-.009 11.235-14.693 15.614-20.841 6.21l-25.176-38.52c-1.207-1.845-4.593-3.975-8.178-4.34-3.298-.334-3.415.716-4.821 1.633-4.34 2.834-5.572 8.659-2.743 12.994l55.853 85.44c.147.223.274.451.395.684 4.16 8.073 5.071 16.217 6.195 23.792h89.12c5.67-28.661 14.043-69.312 14.043-85.15zm51.153-238.94H147.379c-10.677 0-19.361 8.684-19.361 19.356v189.794c0 7.229 4.071 13.8 10.357 17.125l52.923 80.963c3.144 5.506 4.541 18.582 5.526 25.201a7.283 7.283 0 0 0 7.204 6.216h101.374a7.283 7.283 0 0 0 7.138-5.866c6.139-30.753 15.498-75.738 15.498-93.85v-10.434h36.588c10.672 0 19.356-8.679 19.356-19.356V172.183c0-10.671-8.684-19.356-19.356-19.356z" data-original="#2d3a4d" class=""></path><g fill="#009ac3"><path d="M272.149 119.048c0-8.902-7.245-16.147-16.147-16.147-8.907 0-16.152 7.245-16.152 16.147 0 8.907 7.245 16.152 16.152 16.152 8.903 0 16.147-7.245 16.147-16.152zm-17.734 0c0-2.078 3.169-2.085 3.169 0 0 2.092-3.169 2.085-3.169 0zM220.266 94.166c19.761-19.756 51.709-19.754 71.472 0a7.24 7.24 0 0 0 5.146 2.129c6.465 0 9.732-7.853 5.156-12.431-25.435-25.447-66.644-25.432-92.076 0a7.286 7.286 0 0 0 0 10.302 7.277 7.277 0 0 0 10.302 0z" fill="#009ac3" data-original="#009ac3" class=""></path><path d="M188.92 62.82c36.988-36.994 97.176-36.994 134.164 0a7.29 7.29 0 0 0 5.151 2.134c6.419 0 9.747-7.835 5.146-12.441-42.661-42.661-112.096-42.661-154.763 0A7.286 7.286 0 1 0 188.92 62.82z" fill="#009ac3" data-original="#009ac3" class=""></path></g></g></g></svg>