<svg xmlns="http://www.w3.org/2000/svg" version="1.1" xmlns:xlink="http://www.w3.org/1999/xlink" xmlns:svgjs="http://svgjs.com/svgjs" width="512" height="512" x="0" y="0" viewBox="0 0 512 512" style="enable-background:new 0 0 512 512" xml:space="preserve" class=""><g><g fill-rule="evenodd" clip-rule="evenodd"><path fill="#2d3a4d" d="M461.627 446.191c-1.042 3.936-5.099 6.187-8.912 5.147l-75.98-20.356a7.277 7.277 0 0 1-5.145-8.915 7.286 7.286 0 0 1 8.918-5.157l75.974 20.366c3.883 1.039 6.194 5.03 5.145 8.915zm-90.58-199.974a7.291 7.291 0 0 1 5.146-8.925l75.975-20.356c3.888-1.04 7.878 1.271 8.928 5.157 1.039 3.885-1.273 7.876-5.156 8.916l-75.969 20.356c-3.806 1.035-7.867-1.204-8.924-5.148zm105.059 87.89a7.278 7.278 0 0 1-7.285 7.284H390.18a7.287 7.287 0 0 1-7.285-7.284 7.282 7.282 0 0 1 7.285-7.284h78.641a7.273 7.273 0 0 1 7.285 7.284zM310.58 463.139c-6.048 13.875-23.382 18.196-35.245 8.807-33.949-26.872-74.754-48.823-117.059-63.757V262.116c42.432-15.012 82.952-36.793 117.059-63.768 11.863-9.382 29.195-5.056 35.245 8.817 33.686 77.238 33.692 178.737 0 255.974zm-166.874-49.968c0 14.326-9.83 25.97-21.916 25.97H72.376c-12.081 0-21.911-11.644-21.911-25.97V257.133c0-14.326 9.83-25.98 21.911-25.98h49.414c12.086 0 21.916 11.654 21.916 25.98zm154.961-233.218c-11.549-2.883-23.037-.407-32.37 6.973-31.732 25.106-69.602 45.728-109.166 60.115-4.045-17.49-18.357-30.456-35.341-30.456H72.376c-20.116 0-36.482 18.192-36.482 40.548v156.038c0 22.356 16.365 40.537 36.482 40.537h49.414c16.983 0 31.295-12.965 35.341-30.448 39.591 14.406 77.399 34.982 109.166 60.118 19.3 15.271 47.753 8.24 57.638-14.413 35.297-80.89 35.299-186.741 0-267.626-4.762-10.906-13.73-18.501-25.268-21.386z" data-original="#2d3a4d"></path><g fill="#009ac3"><path d="M191.807 164.124c0-11.324-9.207-20.53-20.522-20.53-11.316 0-20.522 9.207-20.522 20.53 0 11.313 9.207 20.52 20.522 20.52 11.316 0 20.522-9.206 20.522-20.52zm-14.57 0c0 3.281-2.667 5.953-5.952 5.953s-5.957-2.672-5.957-5.953a5.963 5.963 0 0 1 5.957-5.963c3.286 0 5.952 2.67 5.952 5.963zM115.387 124.432c30.824-30.824 80.973-30.824 111.797 0a7.261 7.261 0 0 0 5.145 2.127c6.456 0 9.736-7.844 5.151-12.431-36.502-36.507-95.893-36.507-132.395 0a7.289 7.289 0 0 0 0 10.304 7.302 7.302 0 0 0 10.302 0z" fill="#009ac3" data-original="#009ac3"></path><path d="M68.584 77.621c56.629-56.628 148.77-56.628 205.404 0a7.215 7.215 0 0 0 5.146 2.137c6.467 0 9.73-7.863 5.161-12.441-62.287-62.401-163.545-62.475-226.012 0a7.289 7.289 0 0 0 0 10.304 7.283 7.283 0 0 0 10.301 0z" fill="#009ac3" data-original="#009ac3"></path></g></g></g></svg>