<svg xmlns="http://www.w3.org/2000/svg" version="1.1" xmlns:xlink="http://www.w3.org/1999/xlink" xmlns:svgjs="http://svgjs.com/svgjs" width="512" height="512" x="0" y="0" viewBox="0 0 512 512" style="enable-background:new 0 0 512 512" xml:space="preserve" class=""><g><g fill-rule="evenodd" clip-rule="evenodd"><path fill="#2d3a4d" d="M362.311 69.567c2.94 0 5.323 2.377 5.323 5.308a5.317 5.317 0 0 1-5.323 5.313c-2.89 0-5.272-2.378-5.272-5.313 0-2.93 2.383-5.308 5.272-5.308zm0 25.191c11.001 0 19.924-8.918 19.924-19.883 0-10.961-8.923-19.873-19.924-19.873-10.951 0-19.873 8.913-19.873 19.873 0 10.966 8.923 19.883 19.873 19.883zM256 358.53c-46.185 0-83.802-37.617-83.802-83.833 0-46.231 37.617-83.833 83.802-83.833 46.236 0 83.853 37.602 83.853 83.833 0 46.216-37.617 83.833-83.853 83.833zm0-182.236c-54.246 0-98.403 44.142-98.403 98.403 0 54.256 44.157 98.398 98.403 98.398s98.403-44.142 98.403-98.398c0-54.261-44.157-98.403-98.403-98.403zm0 215.29c64.487 0 116.907-52.441 116.907-116.887 0-64.456-52.421-116.892-116.907-116.892-54.499 0-101.292 37.019-113.764 90.038-.761 3.29-3.701 5.612-7.098 5.612h-13.536c-1.166 0-2.129.984-2.129 2.14v30.727c0 1.156.963 2.134 2.129 2.134h12.015a7.31 7.31 0 0 1 7.199 6.048c9.582 56.254 58.048 97.08 115.184 97.08zm0-248.344c-58.841 0-110.499 39.216-126.489 95.65h-7.909c-9.227 0-16.68 7.498-16.68 16.705v30.727c0 9.207 7.452 16.705 16.68 16.705h6.033C140.873 363.09 194.307 406.154 256 406.154c72.497 0 131.457-58.981 131.457-131.457 0-72.491-58.96-131.457-131.457-131.457zm182.205 278.047c3.346 0 6.084-2.722 6.084-6.074V120.629H67.762v294.585c0 3.351 2.737 6.074 6.084 6.074h364.359zm-52.674 43.057c0 1.566-1.318 2.875-2.89 2.875h-60.735c-1.572 0-2.89-1.308-2.89-2.875v-28.492h66.514v28.492zm-192.547 0c0 1.566-1.318 2.875-2.839 2.875h-60.786c-1.521 0-2.839-1.308-2.839-2.875v-28.492h66.464zM128.852 44.761c-33.732 0-61.09 27.342-61.09 61.298h376.526c0-33.957-27.409-61.298-61.09-61.298zm254.347-14.55H128.852c-41.723 0-75.69 33.926-75.69 75.655v309.348c0 11.381 9.277 20.639 20.684 20.639h38.073v28.492c0 9.617 7.858 17.445 17.44 17.445h60.786c9.582 0 17.389-7.827 17.389-17.445v-28.492h96.933v28.492c0 9.617 7.807 17.445 17.44 17.445h60.735c9.632 0 17.44-7.827 17.44-17.445v-28.492h38.124c11.356 0 20.634-9.257 20.634-20.639V105.866c-.001-41.729-33.969-75.655-75.641-75.655z" data-original="#2d3a4d" class=""></path><g fill="#009ac3"><path d="M256 294.332c-8.061 0-14.651 6.575-14.651 14.656 0 8.086 6.591 14.661 14.651 14.661 8.112 0 14.652-6.575 14.652-14.661-.001-8.08-6.541-14.656-14.652-14.656zm-.101 14.656h.203c-.001.107-.203.107-.203 0zM227.153 289.146c15.96-15.98 41.883-15.922 57.744 0a7.23 7.23 0 0 0 5.12 2.139c6.469 0 9.752-7.842 5.171-12.431-21.522-21.585-56.428-21.757-78.327 0a7.192 7.192 0 0 0 0 10.292 7.274 7.274 0 0 0 10.292 0z" fill="#009ac3" data-original="#009ac3"></path><path d="M201.044 263.062c30.317-30.301 79.645-30.301 109.911 0a7.271 7.271 0 0 0 5.171 2.134c6.374 0 9.799-7.817 5.12-12.431-35.944-35.98-94.499-35.98-130.494 0-2.839 2.849-2.839 7.457 0 10.296a7.273 7.273 0 0 0 10.292.001z" fill="#009ac3" data-original="#009ac3"></path></g></g></g></svg>