<svg xmlns="http://www.w3.org/2000/svg" version="1.1" xmlns:xlink="http://www.w3.org/1999/xlink" xmlns:svgjs="http://svgjs.com/svgjs" width="512" height="512" x="0" y="0" viewBox="0 0 512 512" style="enable-background:new 0 0 512 512" xml:space="preserve" class=""><g><g fill-rule="evenodd" clip-rule="evenodd"><path fill="#2d3a4d" d="M469.156 185.644V165c0-1.856-1.572-3.432-3.447-3.432H46.292c-1.876 0-3.447 1.577-3.447 3.432v22.266c0 1.855 1.572 3.427 3.447 3.427h422.864zm0 215.32v-9.207H233.11v29.115h232.598c1.876 0 3.447-1.566 3.447-3.427v-16.481zm0-195.7H233.11v171.924h236.045V205.264zM218.56 467.316V205.264h-25.196v235.082zm-40.304-26.438c.203-.192.355-.36.558-.532V205.264h-64.943v235.082l32.497 34.788zm-79.493 0c.203-.192.355-.36.558-.532V205.264H74.125v262.053zm-39.188-20.005v-29.115H46.292c-1.876 0-3.447 1.561-3.447 3.427v22.261c0 1.861 1.572 3.427 3.447 3.427zM483.705 165v252.445c0 9.926-8.061 17.993-17.997 17.993H233.11v41.663c0 9.714-11.928 14.401-18.504 7.305l-28.492-30.57-31.939 34.251c-4.239 4.568-11.449 4.546-15.665 0l-31.888-34.251-28.492 30.57c-6.613 7.075-18.555 2.437-18.555-7.305v-41.663H46.292c-9.936 0-17.997-8.066-17.997-17.993v-22.261c0-9.926 8.061-17.997 17.997-17.997h13.283V205.264H46.292c-9.936 0-17.997-8.071-17.997-17.997V165c0-9.927 8.061-17.998 17.997-17.998h419.416c9.937.001 17.997 8.072 17.997 17.998z" data-original="#2d3a4d" class=""></path><g fill="#009ac3"><path d="M265.607 97.756c-8.619 0-15.615 6.991-15.615 15.594 0 8.593 6.996 15.6 15.615 15.6 8.618 0 15.564-7.006 15.564-15.6 0-8.603-6.946-15.594-15.564-15.594zm0 16.623c-1.33 0-1.338-2.058 0-2.058s1.33 2.058 0 2.058zM232.4 90.344c18.302-18.297 48.061-18.297 66.362 0a7.271 7.271 0 0 0 5.171 2.134c6.317 0 9.828-7.762 5.12-12.441-23.929-23.974-62.966-23.974-86.945 0-2.839 2.849-2.839 7.463 0 10.307a7.274 7.274 0 0 0 10.292 0z" fill="#009ac3" data-original="#009ac3"></path><path d="M203.047 60.955c34.566-34.619 90.654-34.563 125.12 0 2.829 2.837 7.437 2.867 10.291 0 2.839-2.844 2.839-7.427 0-10.317-39.889-40.191-105.814-40.191-145.703 0-2.839 2.89-2.839 7.473 0 10.317a7.265 7.265 0 0 0 10.292 0zM416.228 249.674H303.63l17.288-17.298a7.295 7.295 0 0 0 0-10.302 7.282 7.282 0 0 0-10.291 0l-29.759 29.734-.456.527c-2.094 1.991-2.216 7.062 0 9.237.152.172.304.34.456.492v.04l29.759 29.729c2.868 2.877 7.482 2.822 10.291 0 2.839-2.844 2.839-7.457 0-10.296L303.63 264.24h112.598a7.276 7.276 0 0 0 7.301-7.28 7.28 7.28 0 0 0-7.301-7.286zM421.399 320.336l-29.708-29.724c-2.89-2.849-7.503-2.849-10.342 0a7.295 7.295 0 0 0 0 10.302l17.288 17.298H286.038c-4.005 0-7.3 3.25-7.3 7.28 0 4.025 3.295 7.285 7.3 7.285h112.598l-17.288 17.288c-4.578 4.582-1.308 12.441 5.171 12.441 1.876 0 3.701-.72 5.171-2.134l30.215-30.332c.152-.167.254-.329.406-.507 0-.38 1.566-1.401 1.064-5.475-.157-1.285-1.085-2.788-1.976-3.722z" fill="#009ac3" data-original="#009ac3"></path></g></g></g></svg>