<svg xmlns="http://www.w3.org/2000/svg" version="1.1" xmlns:xlink="http://www.w3.org/1999/xlink" xmlns:svgjs="http://svgjs.com/svgjs" width="512" height="512" x="0" y="0" viewBox="0 0 512 512" style="enable-background:new 0 0 512 512" xml:space="preserve" class=""><g><g fill-rule="evenodd" clip-rule="evenodd"><path fill="#2d3a4d" d="M407.901 279.656c-5.759 12.537-20.639 18.053-33.176 12.299l-115.695-53.08a7.272 7.272 0 0 0-6.069 0l-115.696 53.08c-12.537 5.754-27.417.238-33.166-12.299-5.74-12.502-.206-27.436 12.304-33.166l139.594-64.051 139.599 64.051c12.494 5.73 18.029 20.668 12.305 33.166zm-73.886 197.252c21.8 0 39.544-17.734 39.544-39.544V307.058a39.774 39.774 0 0 1-4.902-1.86l-112.659-51.691-112.664 51.691a39.99 39.99 0 0 1-4.907 1.86v130.306c0 21.81 17.744 39.544 39.549 39.544h16.72v-100.38c0-15.189 12.355-27.544 27.544-27.544h67.508c15.189 0 27.544 12.355 27.544 27.544v100.38zm-31.295 0h-93.455v-100.38c0-7.159 5.82-12.974 12.973-12.974h67.508c7.159 0 12.974 5.815 12.974 12.974zm98.945-243.665-142.636-65.44a7.29 7.29 0 0 0-6.069 0l-142.636 65.44c-19.805 9.088-28.562 32.672-19.473 52.492 6.002 13.088 18.703 21.841 33.009 22.936v128.694c0 29.84 24.279 54.114 54.114 54.114h156.04c29.83 0 54.109-24.274 54.109-54.114V308.68c13.881-1.065 26.809-9.43 33.014-22.956 9.101-19.832.371-43.38-19.472-52.481z" data-original="#2d3a4d" class=""></path><g fill="#009ac3"><path d="M255.997 112.818c-9.495 0-17.217 7.721-17.217 17.217 0 9.49 7.721 17.217 17.217 17.217 9.49 0 17.212-7.726 17.212-17.217 0-9.496-7.721-17.217-17.212-17.217zm-2.651 17.216c0-3.487 5.293-3.494 5.293 0s-5.293 3.486-5.293 0zM215.333 101.533c22.471-22.471 58.854-22.465 81.318 0a7.244 7.244 0 0 0 5.146 2.134c6.448 0 9.739-7.843 5.156-12.431-28.12-28.152-73.696-28.201-101.911 0a7.271 7.271 0 0 0 0 10.297c2.834 2.844 7.447 2.844 10.291 0z" fill="#009ac3" data-original="#009ac3"></path><path d="M180.221 66.415C222 24.63 289.99 24.63 331.769 66.415a7.242 7.242 0 0 0 5.146 2.134c6.43 0 9.765-7.826 5.156-12.431-47.458-47.462-124.689-47.462-172.157 0a7.29 7.29 0 0 0 0 10.297c2.844 2.844 7.457 2.844 10.307 0z" fill="#009ac3" data-original="#009ac3"></path></g></g></g></svg>