<svg xmlns="http://www.w3.org/2000/svg" version="1.1" xmlns:xlink="http://www.w3.org/1999/xlink" xmlns:svgjs="http://svgjs.com/svgjs" width="512" height="512" x="0" y="0" viewBox="0 0 512 512" style="enable-background:new 0 0 512 512" xml:space="preserve" class=""><g><g fill-rule="evenodd" clip-rule="evenodd"><path fill="#2d3a4d" d="M220.492 127.179c0 3.139-4.753 3.136-4.753 0s4.753-3.138 4.753 0zm3.689-106.616H212.05c-29.395 1.469-56.821 13.604-77.783 34.575a7.274 7.274 0 0 0 0 10.292 7.295 7.295 0 0 0 10.302 0c40.72-40.646 106.376-40.657 147.094 0a7.293 7.293 0 0 0 10.3 0 7.272 7.272 0 0 0 0-10.292c-20.959-20.971-48.387-33.105-77.782-34.575zm-23.009 106.616c0 9.328 7.602 16.933 16.944 16.933 9.343 0 16.944-7.605 16.944-16.933s-7.6-16.933-16.944-16.933c-9.342 0-16.944 7.605-16.944 16.933zM257.513 99.6c-21.724-21.698-57.069-21.698-78.792 0a7.295 7.295 0 0 1-10.302 0 7.274 7.274 0 0 1 0-10.292c27.404-27.427 71.991-27.427 99.393 0 4.595 4.593 1.288 12.421-5.151 12.421a7.266 7.266 0 0 1-5.148-2.129zm22.888 337.135h-15.66v-14.347h15.66zm3.04-28.898h-21.74c-6.357 0-11.528 5.171-11.528 11.508v20.431c0 6.337 5.171 11.508 11.528 11.508h21.74c6.357 0 11.53-5.171 11.53-11.508v-20.431c0-6.336-5.173-11.508-11.53-11.508zm-57.495 28.898h-15.66v-14.347h15.66zm3.04-28.898h-21.74c-6.357 0-11.528 5.171-11.528 11.508v20.431c0 6.337 5.171 11.508 11.528 11.508h21.74c6.357 0 11.53-5.171 11.53-11.508v-20.431c0-6.336-5.173-11.508-11.53-11.508zm-57.496 28.898h-15.66v-14.347h15.66zm3.04-28.898h-21.74c-6.357 0-11.527 5.171-11.527 11.508v20.431c0 6.337 5.171 11.508 11.527 11.508h21.74c6.357 0 11.528-5.171 11.528-11.508v-20.431c0-6.336-5.171-11.508-11.528-11.508zm90.211-45.272h15.66v14.347h-15.66zm-14.567-3.042v20.431c0 6.388 5.171 11.559 11.528 11.559h21.74c6.357 0 11.53-5.171 11.53-11.559v-20.431c0-6.337-5.173-11.508-11.53-11.508h-21.74c-6.357 0-11.528 5.171-11.528 11.508zm-24.228 17.389h-15.66v-14.347h15.66zm3.04-28.897h-21.74c-6.357 0-11.528 5.171-11.528 11.508v20.431c0 6.388 5.171 11.559 11.528 11.559h21.74c6.357 0 11.53-5.171 11.53-11.559v-20.431c0-6.337-5.173-11.508-11.53-11.508zm-57.496 28.897h-15.66v-14.347h15.66zm3.04-28.897h-21.74c-6.357 0-11.527 5.171-11.527 11.508v20.431c0 6.388 5.171 11.559 11.527 11.559h21.74c6.357 0 11.528-5.171 11.528-11.559v-20.431c0-6.337-5.171-11.508-11.528-11.508zm194.788-62.408H253.38a7.335 7.335 0 0 0-6.266 3.549c-6.046 10.241-17.158 16.578-28.998 16.578-18.572 0-33.682-15.108-33.682-33.714 0-18.555 15.11-33.663 33.682-33.663 11.84 0 22.952 6.337 28.998 16.527a7.271 7.271 0 0 0 6.266 3.599h115.937c7.484 0 13.571 6.084 13.571 13.536.001 7.504-6.087 13.588-13.57 13.588zM307.12 457.825V300.157h-49.811c-9.007 12.522-23.661 20.127-39.193 20.127-26.604 0-48.25-21.648-48.25-48.264s21.645-48.213 48.25-48.213c15.532 0 30.186 7.605 39.193 20.076h49.811V196.33c0-10.494-8.537-19.062-19.031-19.062H148.142c-10.494 0-19.031 8.568-19.031 19.062v261.495c0 10.494 8.537 19.062 19.031 19.062h139.947c10.494 0 19.031-8.568 19.031-19.062zm62.198-213.942h-47.629V196.33c0-18.555-15.073-33.612-33.599-33.612H148.142c-18.526 0-33.598 15.057-33.598 33.612v261.495c0 18.555 15.073 33.612 33.598 33.612h139.947c18.526 0 33.599-15.057 33.599-33.612V300.157h47.629c15.516 0 28.139-12.624 28.139-28.137s-12.623-28.137-28.138-28.137z" data-original="#2d3a4d"></path><g fill="#009ac3"><path d="M235.06 127.179c0-9.328-7.6-16.933-16.944-16.933-9.342 0-16.944 7.605-16.944 16.933s7.602 16.933 16.944 16.933c9.343 0 16.944-7.605 16.944-16.933zm-19.321 0c0-3.136 4.753-3.138 4.753 0 0 3.139-4.753 3.136-4.753 0zM178.721 99.6c21.723-21.698 57.068-21.698 78.792 0a7.262 7.262 0 0 0 5.149 2.129c6.439 0 9.746-7.828 5.151-12.421-27.402-27.427-71.99-27.427-99.393 0a7.274 7.274 0 0 0 0 10.292 7.294 7.294 0 0 0 10.301 0z" fill="#009ac3" data-original="#009ac3"></path><path d="M144.57 65.43c40.72-40.646 106.376-40.657 147.094 0a7.293 7.293 0 0 0 10.3 0 7.272 7.272 0 0 0 0-10.292c-20.961-20.972-48.388-33.106-77.783-34.575H212.05c-29.395 1.469-56.821 13.604-77.783 34.575a7.274 7.274 0 0 0 0 10.292 7.296 7.296 0 0 0 10.303 0zM186.058 379.954v-20.431c0-6.337-5.171-11.508-11.528-11.508h-21.74c-6.357 0-11.527 5.171-11.527 11.508v20.431c0 6.388 5.171 11.559 11.527 11.559h21.74c6.357 0 11.528-5.171 11.528-11.559zm-14.568-17.389v14.347h-15.66v-14.347zM195.718 359.523v20.431c0 6.388 5.171 11.559 11.528 11.559h21.74c6.357 0 11.53-5.171 11.53-11.559v-20.431c0-6.337-5.173-11.508-11.53-11.508h-21.74c-6.357 0-11.528 5.171-11.528 11.508zm30.228 17.389h-15.66v-14.347h15.66zM250.174 379.954c0 6.388 5.171 11.559 11.528 11.559h21.74c6.357 0 11.53-5.171 11.53-11.559v-20.431c0-6.337-5.173-11.508-11.53-11.508h-21.74c-6.357 0-11.528 5.171-11.528 11.508zm14.567-3.042v-14.347h15.66v14.347zM261.701 407.837c-6.357 0-11.528 5.171-11.528 11.508v20.431c0 6.337 5.171 11.508 11.528 11.508h21.74c6.357 0 11.53-5.171 11.53-11.508v-20.431c0-6.337-5.173-11.508-11.53-11.508zm3.04 28.898v-14.347h15.66v14.347zM240.516 419.346c0-6.337-5.173-11.508-11.53-11.508h-21.74c-6.357 0-11.528 5.171-11.528 11.508v20.431c0 6.337 5.171 11.508 11.528 11.508h21.74c6.357 0 11.53-5.171 11.53-11.508zm-30.23 3.042h15.66v14.347h-15.66zM186.058 419.346c0-6.337-5.171-11.508-11.528-11.508h-21.74c-6.357 0-11.527 5.171-11.527 11.508v20.431c0 6.337 5.171 11.508 11.527 11.508h21.74c6.357 0 11.528-5.171 11.528-11.508zm-14.568 3.042v14.347h-15.66v-14.347z" fill="#009ac3" data-original="#009ac3"></path></g></g></g></svg>