<svg xmlns="http://www.w3.org/2000/svg" version="1.1" xmlns:xlink="http://www.w3.org/1999/xlink" xmlns:svgjs="http://svgjs.com/svgjs" width="512" height="512" x="0" y="0" viewBox="0 0 512 512" style="enable-background:new 0 0 512 512" xml:space="preserve" class=""><g><g fill-rule="evenodd" clip-rule="evenodd"><path fill="#2d3a4d" d="M256.005 475.727c-84.192-50.393-136.77-141.495-138.246-239.442 85.549-47.848 190.927-47.851 276.481 0-1.465 97.947-54.053 189.05-138.235 239.442zm149.201-249.986c-45.161-26.109-96.755-39.949-149.201-39.949-52.456 0-104.05 13.84-149.211 39.949-2.246 1.318-3.63 3.701-3.63 6.286 0 107.142 56.785 204.679 149.191 258.453 2.319 1.35 4.966 1.352 7.29 0 92.404-53.766 149.191-151.317 149.191-258.453 0-2.585-1.384-4.968-3.63-6.286z" data-original="#2d3a4d" class=""></path><g fill="#009ac3"><path d="M251.604 148.022c0-5.801 8.791-5.809 8.791 0s-8.791 5.802-8.791 0zm4.401-18.961c-10.459 0-18.966 8.517-18.966 18.961s8.507 18.961 18.966 18.961c10.449 0 18.956-8.517 18.956-18.961s-8.507-18.961-18.956-18.961zM207.29 113.599c26.854-26.869 70.565-26.869 97.43 0a7.247 7.247 0 0 0 5.146 2.129c6.429 0 9.75-7.824 5.146-12.421-32.542-32.548-85.48-32.548-118.023 0a7.264 7.264 0 0 0 0 10.291 7.293 7.293 0 0 0 10.301.001z" fill="#009ac3" data-original="#009ac3"></path><path d="M165.987 72.281c49.638-49.582 130.388-49.582 180.025 0a7.11 7.11 0 0 0 5.151 2.18c6.331 0 9.787-7.835 5.146-12.472-55.31-55.311-145.307-55.311-200.618 0a7.274 7.274 0 0 0 0 10.292 7.197 7.197 0 0 0 10.296 0zM283.092 290.481a27.145 27.145 0 0 1-11.615 22.256 7.308 7.308 0 0 0-3.118 5.982v48.821c0 2.18-1.866 4.056-4.081 4.056H247.72c-2.205 0-4.081-1.876-4.081-4.056v-48.821a7.288 7.288 0 0 0-3.107-5.982 27.145 27.145 0 0 1-11.615-22.256c0-14.905 12.152-27.072 27.087-27.072 14.936-.001 27.088 12.167 27.088 27.072zm-27.087-41.623c-22.966 0-41.653 18.657-41.653 41.622a41.654 41.654 0 0 0 14.722 31.787v45.272c0 10.241 8.37 18.657 18.646 18.657h16.558c10.287 0 18.646-8.416 18.646-18.657v-45.272a41.661 41.661 0 0 0 14.733-31.787c.001-22.965-18.686-41.622-41.652-41.622z" fill="#009ac3" data-original="#009ac3"></path></g></g></g></svg>