<svg xmlns="http://www.w3.org/2000/svg" version="1.1" xmlns:xlink="http://www.w3.org/1999/xlink" xmlns:svgjs="http://svgjs.com/svgjs" width="512" height="512" x="0" y="0" viewBox="0 0 512 512" style="enable-background:new 0 0 512 512" xml:space="preserve" class=""><g><g fill-rule="evenodd" clip-rule="evenodd"><path fill="#2d3a4d" d="M330.317 442.945H181.683c-18.337 0-33.252-14.905-33.252-33.257v-2.839h215.143v2.839c0 18.352-14.92 33.257-33.257 33.257zm33.257-323.244v272.598H148.431V119.701zM181.683 69.055h148.633c18.337 0 33.257 14.905 33.257 33.257v2.839H148.431v-2.839c0-18.352 14.915-33.257 33.252-33.257zm148.634-14.55H181.683c-26.368 0-47.823 21.445-47.823 47.807v307.376c0 26.363 21.455 47.807 47.823 47.807h148.633c26.373 0 47.823-21.445 47.823-47.807V102.312c0-26.362-21.45-47.807-47.822-47.807z" data-original="#2d3a4d" class=""></path><g fill="#009ac3"><path d="M304.624 262.717c-26.814-26.768-70.433-26.768-97.247 0a7.334 7.334 0 0 0 0 10.342 7.301 7.301 0 0 0 10.307 0c21.125-21.141 55.503-21.141 76.634 0a7.26 7.26 0 0 0 5.146 2.129c6.438.001 9.738-7.802 5.16-12.471zM272.71 299.827c0-9.227-7.498-16.73-16.715-16.73-9.207 0-16.705 7.503-16.705 16.73s7.498 16.68 16.705 16.68c9.217 0 16.715-7.453 16.715-16.68zm-16.715 2.13c-2.807 0-2.807-4.259 0-4.259 2.827 0 2.827 4.259 0 4.259z" fill="#009ac3" data-original="#009ac3"></path><path d="M184.355 239.701c39.503-39.493 103.787-39.493 143.295 0a7.242 7.242 0 0 0 5.145 2.129c6.428 0 9.751-7.825 5.146-12.421-45.176-45.171-118.707-45.171-163.883 0a7.265 7.265 0 0 0 0 10.292c2.834 2.839 7.448 2.839 10.297 0z" fill="#009ac3" data-original="#009ac3"></path></g></g></g></svg>