<svg xmlns="http://www.w3.org/2000/svg" version="1.1" xmlns:xlink="http://www.w3.org/1999/xlink" xmlns:svgjs="http://svgjs.com/svgjs" width="512" height="512" x="0" y="0" viewBox="0 0 512 512" style="enable-background:new 0 0 512 512" xml:space="preserve" class=""><g><g fill-rule="evenodd" clip-rule="evenodd"><path fill="#2d3a4d" d="M205.531 318.459h-7.402v-28.644h7.402zm4.259-43.194h-15.919c-5.678 0-10.342 4.664-10.342 10.342v37.11c0 5.678 4.664 10.342 10.342 10.342h15.919c5.678 0 10.342-4.664 10.342-10.342v-37.11c0-5.678-4.664-10.342-10.342-10.342zm-11.66-87.959h7.402v28.644h-7.402zm-4.259 43.244h15.919c5.678 0 10.342-4.664 10.342-10.342v-37.11c0-5.729-4.664-10.342-10.342-10.342h-15.919c-5.678 0-10.342 4.613-10.342 10.342v37.11c0 5.678 4.664 10.342 10.342 10.342zm138.656 221.647c5.577 0 10.14-4.512 10.14-10.089V261.07H169.334v181.039a10.083 10.083 0 0 0 10.089 10.089h153.104zm-23.067 24.69h-31.787v-10.089h31.787zm-75.133 0H202.54v-10.089h31.787zm-54.905-320.101a10.083 10.083 0 0 0-10.089 10.089v79.594h173.333v-79.594c0-5.577-4.563-10.089-10.14-10.089zm153.105-14.55H179.422c-13.587 0-24.639 11.052-24.639 24.639v275.234c0 13.587 11.052 24.689 24.639 24.689h8.568v10.95c0 7.554 6.134 13.688 13.688 13.688h33.511c7.554 0 13.688-6.134 13.688-13.688v-10.95h14.246v10.95c0 7.554 6.134 13.688 13.688 13.688h33.511c7.554 0 13.688-6.134 13.688-13.688v-10.95h8.517c13.637 0 24.689-11.103 24.689-24.689V166.875c0-13.587-11.051-24.639-24.689-24.639z" data-original="#2d3a4d" class=""></path><g fill="#009ac3"><path d="M256.127 87.179c-12.867 0-19.278 15.601-10.19 24.689 8.969 8.969 24.689 2.743 24.689-10.292 0-7.998-6.432-14.397-14.499-14.397zM228.142 82.566c15.501-15.553 40.4-15.616 55.919-.203a7.237 7.237 0 0 0 10.292-.051 7.237 7.237 0 0 0-.051-10.292 54.054 54.054 0 0 0-76.502.254c-2.839 2.839-2.788 7.452.051 10.292 2.869 2.869 7.49 2.81 10.291 0z" fill="#009ac3" data-original="#009ac3"></path><path d="M202.692 57.268c29.303-29.506 77.161-29.658 106.666-.355 2.839 2.839 7.452 2.788 10.292-.051a7.236 7.236 0 0 0-.051-10.291c-16.435-16.34-37.649-25.002-59.156-26.008h-8.461c-21.716 1.01-43.133 9.818-59.632 26.413-4.633 4.646-1.163 12.421 5.171 12.421 1.876 0 3.752-.71 5.171-2.129z" fill="#009ac3" data-original="#009ac3"></path></g></g></g></svg>