<svg xmlns="http://www.w3.org/2000/svg" version="1.1" xmlns:xlink="http://www.w3.org/1999/xlink" xmlns:svgjs="http://svgjs.com/svgjs" width="512" height="512" x="0" y="0" viewBox="0 0 512 512" style="enable-background:new 0 0 512 512" xml:space="preserve"><g><g fill-rule="evenodd" clip-rule="evenodd"><path fill="#2d3a4d" d="M330.307 310.442a7.28 7.28 0 0 0 7.285-7.3V282.66c0-4.005-3.265-7.3-7.285-7.3s-7.285 3.295-7.285 7.3v20.482c0 4.056 3.264 7.3 7.285 7.3zm-49.542 0a7.273 7.273 0 0 0 7.285-7.3V282.66c0-4.005-3.255-7.3-7.285-7.3-4.02 0-7.285 3.295-7.285 7.3v20.482a7.28 7.28 0 0 0 7.285 7.3zm-49.53 0a7.277 7.277 0 0 0 7.285-7.3V282.66c0-4.005-3.26-7.3-7.285-7.3-4.02 0-7.28 3.295-7.28 7.3v20.482a7.274 7.274 0 0 0 7.28 7.3zm-49.531 0c4.02 0 7.28-3.245 7.28-7.3V282.66c0-4.005-3.26-7.3-7.28-7.3-4.025 0-7.285 3.295-7.285 7.3v20.482c0 4.056 3.259 7.3 7.285 7.3zm138.316 118.53c-16.034-13.361-15.701-24.739.127-38.53 3.032-2.636 3.341-7.25.699-10.292-2.651-3.042-7.245-3.346-10.286-.71-22.626 19.701-22.884 41.443.127 60.684 16.116 13.475 15.808 24.784-.096 38.53-5.106 4.414-1.933 12.826 4.77 12.826 1.688 0 3.376-.608 4.755-1.775 22.836-19.559 22.863-41.549-.096-60.733zm-59.386 0c-16.037-13.373-15.693-24.73.127-38.53 3.027-2.636 3.351-7.25.7-10.292-2.646-3.042-7.245-3.346-10.276-.71-22.634 19.731-22.896 41.437.122 60.684 16.09 13.454 15.808 24.806-.091 38.53-5.12 4.419-1.925 12.826 4.76 12.826a7.36 7.36 0 0 0 4.755-1.775c22.818-19.572 22.88-41.543-.097-60.733zm-59.382 0c-16.029-13.366-15.705-24.731.127-38.53 3.032-2.636 3.346-7.25.7-10.292s-7.245-3.346-10.281-.71c-22.63 19.716-22.888 41.438.127 60.684 16.101 13.464 15.805 24.797-.096 38.53-5.106 4.41-1.931 12.826 4.766 12.826a7.36 7.36 0 0 0 4.755-1.775c22.816-19.579 22.878-41.536-.098-60.733zm254.996-233.46c0-1.166-.963-2.129-2.109-2.129H57.866c-1.146 0-2.109.963-2.109 2.129v46.945c0 1.166.963 2.129 2.109 2.129h396.273c1.146 0 2.109-.963 2.109-2.129zm-57.272 63.625-48.547 77.718c-1.43 2.281-3.615 3.498-6.312 3.498H167.889c-2.697 0-4.882-1.217-6.312-3.498l-48.553-77.718zm71.837-63.625v46.945c0 9.176-7.478 16.679-16.674 16.679h-37.982l-53.374 85.424c-4.112 6.591-10.91 10.342-18.667 10.342H167.889c-7.757 0-14.555-3.751-18.667-10.342l-53.374-85.424H57.866c-9.196 0-16.679-7.503-16.679-16.679v-46.945c0-9.227 7.483-16.73 16.679-16.73h396.273c9.196 0 16.674 7.503 16.674 16.73z" data-original="#2d3a4d"></path><g fill="#009ac3"><path d="M256.005 108.263c-9.227 0-16.73 7.503-16.73 16.73s7.503 16.73 16.73 16.73c9.222 0 16.73-7.503 16.73-16.73s-7.508-16.73-16.73-16.73zm0 14.55c2.815 0 2.873 4.36 0 4.36-2.88 0-2.821-4.36 0-4.36zM217.597 98.174c21.176-21.192 55.635-21.192 76.816 0a7.261 7.261 0 0 0 5.146 2.129c6.487 0 9.727-7.908 5.156-12.471-26.865-26.819-70.565-26.819-97.419 0-2.849 2.839-2.849 7.452 0 10.342 2.843 2.839 7.452 2.839 10.301 0z" fill="#009ac3" data-original="#009ac3"></path><path d="M184.198 64.765c39.595-39.594 104.015-39.594 143.615 0 2.835 2.84 7.451 2.838 10.291 0a7.274 7.274 0 0 0 0-10.292c-45.267-45.272-118.93-45.272-164.202 0a7.265 7.265 0 0 0 0 10.292 7.288 7.288 0 0 0 10.296 0z" fill="#009ac3" data-original="#009ac3"></path></g></g></g></svg>