<svg xmlns="http://www.w3.org/2000/svg" version="1.1" xmlns:xlink="http://www.w3.org/1999/xlink" xmlns:svgjs="http://svgjs.com/svgjs" width="512" height="512" x="0" y="0" viewBox="0 0 512 512" style="enable-background:new 0 0 512 512" xml:space="preserve"><g><g fill-rule="evenodd" clip-rule="evenodd"><path fill="#2d3a4d" d="m200.615 386.545-23.98-55.868-74.018.203 23.473 54.601c.152.406 1.369 1.217 3.346 1.217zM42.593 191.159l23.524 54.752 73.967-.203-24.03-55.817-70.266.152c-.813 0-2.333.152-3.195 1.116zm179.112-1.521 24.031 55.817 74.169-.152-23.473-54.601c-.203-.456-1.369-1.267-3.346-1.267zM379.93 384.973l-23.523-54.753-74.119.203 24.03 55.817 70.418-.152c.812.001 2.282-.152 3.194-1.115zm-187.477-54.347 73.967-.152 24.03 55.817-73.967.203zm83.549-14.753 74.119-.203-23.98-55.818-74.169.152zm-46.135-70.367-73.967.203-24.03-55.868 73.967-.203zm-83.548 14.803-73.916.152 23.98 55.868 73.967-.203zm39.898 55.767-24.03-55.817 73.967-.203 24.03 55.868zm261.292 168.06c0 4.056-3.295 7.301-7.3 7.301H68.499c-4.005 0-7.25-3.245-7.25-7.301a7.249 7.249 0 0 1 7.25-7.25h178.555v-75.893l-117.617.254c-7.554 0-14.094-3.904-16.73-10.038l-83.6-194.575c-4.537-10.521 4.376-21.125 16.68-21.141l247.249-.608c7.563-.009 14.146 3.931 16.781 10.038l83.599 194.626c4.436 10.355-4.243 21.073-16.679 21.09l-115.082.304v75.944H440.21c4.004 0 7.299 3.244 7.299 7.249z" data-original="#2d3a4d"></path><g fill="#009ac3"><path d="M347.129 111.919c0 31.28 25.45 56.781 56.73 56.781s56.73-25.5 56.73-56.781c0-31.28-25.45-56.73-56.73-56.73s-56.73 25.45-56.73 56.73zm98.859 0c0 23.27-18.859 42.18-42.129 42.18s-42.18-18.91-42.18-42.18c0-23.219 18.91-42.129 42.18-42.129s42.129 18.91 42.129 42.129zM403.859 183.098c-4.056 0-7.3 3.295-7.3 7.3v5.78a7.27 7.27 0 0 0 7.3 7.301c4.005 0 7.301-3.245 7.301-7.301v-5.78c0-4.005-3.295-7.3-7.301-7.3zM339.576 157.496c3.447-2.028 4.664-6.489 2.636-9.987-2.028-3.448-6.489-4.664-9.937-2.636l-5.019 2.89a7.293 7.293 0 0 0-2.687 9.936 7.349 7.349 0 0 0 9.987 2.687zM327.256 76.127l5.019 2.89c3.332 1.943 7.912.902 9.937-2.636 2.028-3.498.811-7.96-2.636-9.987l-5.019-2.89c-3.498-2.028-7.959-.811-9.987 2.687-1.978 3.447-.812 7.908 2.686 9.936zM396.559 33.491c0 4.005 3.245 7.3 7.3 7.3 4.005 0 7.301-3.295 7.301-7.3v-5.779c0-3.541-2.512-6.464-5.815-7.149h-2.985a7.266 7.266 0 0 0-5.8 7.149v5.779zM483.099 66.19c-1.977-3.498-6.439-4.715-9.937-2.687l-5.019 2.89c-6.306 3.67-3.868 13.587 3.65 13.587a7.423 7.423 0 0 0 3.65-.963l5.019-2.89c3.498-2.028 4.665-6.489 2.637-9.937zM480.462 147.762l-5.019-2.89c-3.498-2.028-7.96-.811-9.937 2.636-2.028 3.498-.811 7.96 2.636 9.987l5.019 2.89c3.422 1.952 7.873.891 9.937-2.687 2.029-3.447.862-7.908-2.636-9.936z" fill="#009ac3" data-original="#009ac3"></path></g></g></g></svg>