<svg xmlns="http://www.w3.org/2000/svg" version="1.1" xmlns:xlink="http://www.w3.org/1999/xlink" xmlns:svgjs="http://svgjs.com/svgjs" width="512" height="512" x="0" y="0" viewBox="0 0 512 512" style="enable-background:new 0 0 512 512" xml:space="preserve"><g><g fill-rule="evenodd" clip-rule="evenodd"><path fill="#2d3a4d" d="M366.905 290.094c0-5.272-4.314-9.582-9.607-9.582s-9.592 4.309-9.592 9.582c0 4.056-3.265 7.301-7.285 7.301s-7.285-3.245-7.285-7.301V275.24c0-5.273-4.314-9.582-9.602-9.582-5.293 0-9.597 4.309-9.597 9.582 0 4.005-3.265 7.3-7.285 7.3-4.03 0-7.285-3.295-7.285-7.3v-14.854c0-5.272-4.309-9.582-9.602-9.582s-9.607 4.309-9.607 9.582c0 4.056-3.255 7.3-7.28 7.3a7.28 7.28 0 0 1-7.285-7.3v-85.425c0-5.323-4.304-9.632-9.597-9.632s-9.602 4.309-9.602 9.632l-.198 131.762c-.016 14.96-19.524 20.748-27.686 8.264l-22.991-35.184c-2.784-4.275-11.933-7.303-15.118-4.31-.36.304-.75.659-1.166.913-5.308 3.363-7.009 10.823-3.427 16.274l63.807 97.643c.142.203.269.456.385.659 3.762 7.401 5.216 14.905 6.048 20.633l3.209 21.546h98.408c9.169-49.345 19.24-89.739 19.24-143.067zm-19.524 157.667h-97.125v22.966a6.238 6.238 0 0 0 6.236 6.236h84.659a6.237 6.237 0 0 0 6.231-6.236v-22.966zm34.089-157.667c0 45.323-7.158 82.079-14.733 120.912-1.698 8.771-3.457 17.795-5.176 27.123.243.71.39 1.521.39 2.332v30.266c0 11.458-9.333 20.786-20.801 20.786h-84.659c-11.473 0-20.806-9.328-20.806-20.786v-29.708l-4.046-27.275c-.71-4.816-1.789-10.444-4.451-15.817l-63.579-97.288c-3.838-5.83-5.151-12.877-3.701-19.772 1.394-6.692 5.217-12.421 10.768-16.274 4.071-3.701 9.8-5.374 16.238-4.715 8.472.913 16.629 5.577 20.796 11.965l22.996 35.184c.256.378.922.28.923-.304l.193-131.812c0-13.283 10.849-24.132 24.172-24.132s24.162 10.849 24.162 24.182v63.27c13.154-5.866 28.655 1.411 32.776 15.311 13.304-6.516 29.514.514 33.779 14.854 16.003-7.874 34.759 3.858 34.759 21.698z" data-original="#2d3a4d"></path><g fill="#009ac3"><path d="M179.341 201.222c-14.869-50.538 23.086-102.306 76.654-102.306 53.199 0 91.471 51.173 76.649 102.357-1.131 3.853 1.085 7.858 4.943 9.024 3.797 1.132 7.905-1.087 9.039-4.968 17.552-60.072-27.467-120.963-90.631-120.963-63.196 0-108.24 60.954-90.631 120.963 1.13 3.853 5.176 6.084 9.034 4.968 3.863-1.166 6.079-5.222 4.943-9.075z" fill="#009ac3" data-original="#009ac3"></path><path d="M107.143 183.934c0-82.078 66.778-148.846 148.851-148.846 82.083 0 148.861 66.768 148.861 148.846 0 24.436-6.048 48.669-17.49 70.063-2.613 4.895 1.01 10.748 6.418 10.748a7.325 7.325 0 0 0 6.429-3.853c12.568-23.523 19.214-50.139 19.214-76.958 0-90.139-73.318-163.447-163.432-163.447S92.572 93.795 92.572 183.934c0 26.819 6.636 53.435 19.204 76.907a7.211 7.211 0 0 0 9.855 2.991c3.544-1.876 4.887-6.286 2.991-9.835-11.435-21.394-17.479-45.627-17.479-70.063z" fill="#009ac3" data-original="#009ac3"></path></g></g></g></svg>