<svg xmlns="http://www.w3.org/2000/svg" version="1.1" xmlns:xlink="http://www.w3.org/1999/xlink" xmlns:svgjs="http://svgjs.com/svgjs" width="512" height="512" x="0" y="0" viewBox="0 0 512 512" style="enable-background:new 0 0 512 512" xml:space="preserve" class=""><g><g fill-rule="evenodd" clip-rule="evenodd"><path fill="#2d3a4d" d="M400.055 444.168V340.797h-61.764v81.875zm-102.377-35.64 26.048 9.075v-76.806h-26.048zm0-150.012v67.681h26.048v-76.755zm102.377-35.691-61.764 21.546v81.825h61.764zm14.571-9.987v241.368c0 4.295-3.563 7.539-8.071 7.25-.786-.101-1.962-.253-3.245-.71l-115.315-40.203c-2.925-.963-4.882-3.752-4.882-6.844V253.345c0-3.143 1.957-5.881 4.882-6.895l115.315-40.152c3.235-1.134 6.395-1.149 8.897 1.115a7.229 7.229 0 0 1 2.419 5.425zm-200.314 195.69v-67.731h-26.048v76.806zm-102.382 35.64 61.769-21.496v-81.875H111.93zm0-221.343v103.371h61.769v-81.825zm102.382 35.691-26.048-9.075v76.755h26.048zm14.57-5.171V413.7c0 3.092-1.957 5.881-4.887 6.844l-115.31 40.203c-3.083 1.084-6.417 1.108-8.902-1.115-1.546-1.419-2.418-3.397-2.418-5.424v-241.37c0-4.323 3.803-7.791 8.071-7.25l3.25.71 115.31 40.152c2.929 1.014 4.886 3.752 4.886 6.895zm211.599-46.996v254.347c0 8.923-8.629 16.223-19.219 16.223H90.728c-10.595 0-19.209-7.301-19.209-16.223V206.349c0-8.973 8.613-16.274 19.209-16.274h330.534c10.591 0 19.219 7.3 19.219 16.274zm14.566 0v254.347c0 16.983-15.158 30.773-33.784 30.773H90.728c-18.626 0-33.774-13.79-33.774-30.773V206.349c0-16.983 15.148-30.824 33.774-30.824h330.534c18.626 0 33.785 13.84 33.785 30.824z" data-original="#2d3a4d" class=""></path><g fill="#009ac3"><path d="M276.477 139.632c0-9.987-8.137-18.149-18.15-18.149-10.008 0-18.155 8.162-18.155 18.149 0 10.038 8.147 18.149 18.155 18.149 10.013 0 18.15-8.112 18.15-18.149zm-18.15 3.599c-4.715 0-4.715-7.199 0-7.199 4.71 0 4.71 7.199 0 7.199zM213.369 107.997c24.948-24.912 65.042-24.879 89.921 0 2.834 2.839 7.452 2.839 10.297 0s2.844-7.452 0-10.342c-30.24-30.471-80.278-30.473-110.519 0-2.844 2.89-2.844 7.503 0 10.342 2.842 2.845 7.464 2.833 10.301 0z" fill="#009ac3" data-original="#009ac3"></path><path d="M174.951 69.568c45.977-45.982 120.776-45.982 166.763 0 2.834 2.839 7.447 2.839 10.292 0a7.273 7.273 0 0 0 0-10.291c-51.655-51.66-135.701-51.66-187.361 0-4.601 4.596-1.278 12.421 5.151 12.421a7.293 7.293 0 0 0 5.155-2.13z" fill="#009ac3" data-original="#009ac3"></path></g></g></g></svg>