<svg xmlns="http://www.w3.org/2000/svg" version="1.1" xmlns:xlink="http://www.w3.org/1999/xlink" xmlns:svgjs="http://svgjs.com/svgjs" width="512" height="512" x="0" y="0" viewBox="0 0 512 512" style="enable-background:new 0 0 512 512" xml:space="preserve"><g><g fill-rule="evenodd" clip-rule="evenodd"><path fill="#2d3a4d" d="M241.181 476.94h29.638c-3.35-81.467-6.672-162.3-10.013-243.65l-8.031.117-1.678 2.383zm-4.471-246.048.051-.989a52.983 52.983 0 0 1-21.267-14.976l-45.171 97.779 2.023 3.62 4.137-.066zm-18.566-88.618c6.696-6.696 14.973-11.475 24.096-13.896l-65.759-93.186-4.137-.066-2.023 3.62zm47.924.188c10.033 2.687 18.413 9.126 23.61 18.119 10.75 18.615 4.381 42.39-14.236 53.135-18.622 10.749-42.372 4.371-53.12-14.241-10.817-18.732-4.274-42.423 14.236-53.12 9.011-5.207 19.548-6.559 29.51-3.893zm147.671 29.713-107.275-9.779a53.22 53.22 0 0 1 2.241 26.453l105.034-9.561 2.124-3.559zm65.843 319.335H32.418a5.838 5.838 0 0 1-5.827-5.827v-2.917a5.839 5.839 0 0 1 5.827-5.827h194.183l9.014-219.214-49.364 69.967a7.318 7.318 0 0 1-5.84 3.078l-12.314.193a7.279 7.279 0 0 1-6.367-3.741l-5.937-10.672a7.279 7.279 0 0 1-.243-6.59l50.824-110.038c-5.716-14.203-4.987-30.401 1.972-44.126L155.549 41.494a7.285 7.285 0 0 1 .243-6.591l5.937-10.666c1.314-2.358 3.78-3.768 6.484-3.746l12.198.192a7.298 7.298 0 0 1 5.84 3.088l72.613 102.91c15.037.826 29.465 7.969 39.169 20.324l120.714 10.991a7.311 7.311 0 0 1 5.587 3.518l6.271 10.469a7.294 7.294 0 0 1 0 7.488l-6.271 10.469a7.285 7.285 0 0 1-5.587 3.518l-114.955 10.474c-5.843 11.738-15.88 21.073-28.542 25.982l3.797 92.329.603 14.656 5.754 140.04h194.178a5.838 5.838 0 0 1 5.827 5.827v2.917a5.838 5.838 0 0 1-5.827 5.827z" data-original="#2d3a4d"></path><g fill="#009ac3"><path d="M395.052 217.569c-13.251 49.082-51.03 86.854-98.561 100.736a5.192 5.192 0 0 0-3.768 5.299l.213 4.19c.084 1.651.842 3.037 2.186 3.999 1.345.962 2.9 1.232 4.49.778 52.76-15.052 94.809-56.779 109.503-111.205a7.277 7.277 0 0 0-5.126-8.928c-3.888-1.044-7.888 1.248-8.937 5.131zM147.934 275.293a145.124 145.124 0 0 1-16.674-23.244c-31.823-55.123-24.122-123.468 19.163-170.053 2.737-2.945 2.575-7.559-.37-10.296-2.951-2.738-7.554-2.575-10.292.38-22.601 24.319-37.247 55.949-41.247 89.075-5.424 44.977 8.596 89.817 38.484 123.756 2.656 3.031 7.267 3.323 10.276.659 3.023-2.652 3.317-7.256.66-10.277zM380.735 108.013a144.823 144.823 0 0 1 11.802 26.063c1.019 3.042 3.858 4.953 6.895 4.953 4.915 0 8.51-4.853 6.905-9.612-14.453-42.856-46.276-77.421-87.939-95.204-30.692-13.1-65.409-16.238-97.769-8.831-3.924.907-6.373 4.811-5.465 8.73a7.274 7.274 0 0 0 8.72 5.47c61.997-14.2 125.028 13.308 156.851 68.431z" fill="#009ac3" data-original="#009ac3"></path></g></g></g></svg>